<?xml version="1.0" standalone="no"?>
<!DOCTYPE svg PUBLIC "-//W3C//DTD SVG 20010904//EN"
 "http://www.w3.org/TR/2001/REC-SVG-20010904/DTD/svg10.dtd">
<svg version="1.0" xmlns="http://www.w3.org/2000/svg"
 width="640.000000pt" height="393.000000pt" viewBox="0 0 640.000000 393.000000"
 preserveAspectRatio="xMidYMid meet">
<metadata>
Created by potrace 1.16, written by Peter Selinger 2001-2019
</metadata>
<g transform="translate(0.000000,393.000000) scale(0.100000,-0.100000)"
fill="#000000" stroke="none">
<path d="M1675 3830 c-3 -5 -3 -10 2 -10 4 -1 -10 -7 -31 -15 -22 -8 -43 -12
-47 -9 -4 2 -11 -1 -15 -7 -5 -8 -3 -9 7 -4 8 5 3 -5 -11 -21 -40 -47 -45 -51
-27 -22 22 35 22 50 1 20 -9 -13 -17 -35 -19 -49 -1 -14 -6 -28 -11 -32 -5 -3
-9 -31 -9 -61 0 -54 -10 -84 -25 -75 -4 3 -10 -2 -13 -10 -4 -10 -1 -12 11 -9
16 5 16 5 0 -6 -10 -6 -21 -11 -25 -12 -14 -1 -35 -38 -30 -51 3 -7 6 -5 6 5
1 9 5 19 10 22 5 4 7 -3 4 -15 -5 -19 -2 -20 33 -15 22 3 31 3 22 0 -11 -3
-18 -14 -17 -27 1 -17 2 -18 6 -4 10 39 22 13 22 -49 -1 -48 -5 -67 -16 -71
-8 -3 -10 -8 -5 -12 5 -3 -2 -15 -17 -26 -17 -12 -22 -14 -13 -3 10 13 10 17
-3 22 -16 6 -16 5 -1 -62 3 -12 7 -26 10 -31 4 -5 0 -12 -6 -14 -7 -3 -2 -6
12 -7 14 -1 19 -4 12 -7 -6 -2 -9 -9 -6 -15 3 -5 6 -60 7 -121 l0 -112 7 95 6
95 2 -86 c2 -97 -6 -152 -20 -143 -6 4 -5 -3 1 -14 6 -11 11 -32 11 -46 0 -14
4 -28 10 -31 6 -4 8 7 5 27 -4 26 -2 24 10 -12 8 -25 18 -52 22 -60 3 -8 5
-20 4 -26 0 -6 7 -17 16 -25 15 -11 16 -11 6 1 -22 24 -14 34 10 13 12 -11 33
-26 46 -33 36 -18 177 -39 193 -28 10 7 8 8 -4 4 -15 -4 -18 1 -18 24 0 31 15
41 23 15 4 -11 4 -10 3 2 -1 10 -10 19 -21 21 -11 2 -24 8 -30 14 -6 6 -3 7 9
2 13 -5 17 -4 12 4 -4 7 -13 12 -20 12 -16 0 -26 44 -26 116 0 57 4 60 63 55
26 -3 20 25 -10 50 l-28 22 25 -6 c14 -3 35 -8 46 -10 19 -5 21 -2 15 21 -4
15 -12 27 -17 28 -19 2 -78 33 -64 34 9 0 25 -7 37 -15 17 -12 23 -13 29 -3 4
7 4 10 -1 6 -4 -4 -20 1 -34 11 -14 10 -33 16 -41 13 -9 -2 -8 1 4 10 13 10
17 22 13 37 -5 21 23 48 37 34 3 -3 6 -1 6 6 0 7 -6 11 -14 8 -8 -3 -20 1 -26
9 -7 8 -19 14 -27 14 -20 0 -8 16 17 23 13 3 18 1 13 -6 -4 -7 -1 -7 9 1 13
10 17 10 20 0 3 -7 5 2 5 20 0 34 -13 44 -20 15 -2 -10 -4 -2 -4 17 0 19 2 29
4 23 5 -15 23 -17 23 -3 0 5 -15 17 -32 25 -31 14 -31 15 -5 10 21 -4 27 -1
28 12 0 16 2 15 9 -2 8 -19 9 -19 9 2 1 22 -12 36 -37 39 -29 5 -24 14 6 14
18 0 32 5 32 12 0 6 6 4 13 -5 11 -16 12 -15 12 7 0 13 -2 22 -4 20 -10 -9
-39 29 -34 44 4 14 3 15 -6 2 -7 -11 -5 -20 7 -34 13 -15 9 -14 -15 4 -35 25
-42 36 -18 26 9 -3 15 0 15 9 0 8 -5 15 -10 15 -6 0 -5 6 2 14 7 8 16 12 21 9
4 -2 7 9 7 26 0 16 5 33 10 36 6 3 10 18 10 32 0 28 -58 93 -84 93 -10 0 -13
6 -9 16 4 11 8 12 13 4 5 -9 9 -9 14 -1 9 15 -3 33 -16 25 -6 -4 -6 2 1 15 7
11 17 21 24 20 9 0 9 -2 0 -6 -7 -2 -13 -9 -13 -14 0 -17 19 1 35 32 9 16 12
35 8 42 -5 8 -10 1 -14 -18 l-7 -30 -1 32 -1 33 -62 -7 c-45 -4 -59 -3 -54 5
4 7 5 12 2 12 -3 0 -8 -4 -11 -10z m-62 -920 c8 0 7 -4 -2 -9 -10 -7 -6 -11
17 -15 22 -5 33 -16 42 -39 7 -18 24 -56 37 -85 32 -69 22 -84 -51 -77 -67 7
-99 38 -103 97 -1 24 -3 59 -5 78 -3 30 0 35 21 38 19 3 21 6 10 14 -11 8 -10
9 4 4 10 -3 24 -6 30 -6z"/>
<path d="M963 3793 c-2 -23 1 -33 11 -33 8 0 17 -7 20 -16 6 -15 4 -15 -11 -3
-15 12 -16 12 -8 -1 5 -8 10 -21 11 -28 2 -8 6 -17 10 -20 4 -4 4 1 1 11 -4 9
-2 17 4 17 6 0 9 -15 7 -32 -2 -28 -9 -35 -38 -44 -21 -7 -36 -19 -38 -30 -4
-18 -3 -18 12 1 15 19 16 18 5 -10 -9 -26 -7 -32 13 -49 18 -15 19 -18 4 -12
-17 6 -17 5 -5 -11 9 -11 10 -14 2 -9 -9 5 -13 1 -13 -10 0 -10 3 -14 7 -11 3
4 11 -3 17 -16 10 -19 8 -26 -15 -48 -29 -28 -55 -70 -42 -68 4 1 26 1 47 0
37 -1 38 -2 20 -15 -11 -9 -20 -10 -23 -5 -1 6 -9 2 -17 -8 -15 -21 -18 -37
-5 -28 5 3 13 1 16 -5 4 -6 16 -8 28 -4 18 5 20 4 9 -7 -7 -8 -18 -14 -25 -14
-7 0 -13 -15 -14 -35 -1 -35 -1 -35 6 -5 l8 30 4 -30 c2 -19 12 -34 27 -40 27
-12 28 -21 2 -28 -21 -5 -27 -31 -10 -42 8 -5 8 -11 0 -20 -13 -16 -3 -43 18
-48 13 -4 13 -5 -3 -6 -23 -1 -87 -41 -66 -41 11 0 11 -3 1 -15 -10 -11 -10
-18 -1 -29 7 -8 8 -16 2 -18 -14 -5 -18 -42 -3 -44 6 -1 29 -3 50 -4 20 -1 29
-4 20 -7 -10 -3 -15 -10 -11 -19 5 -13 8 -13 15 -2 6 8 8 -1 4 -27 -3 -22 -6
-55 -6 -72 0 -26 -4 -33 -19 -33 -11 0 -23 -5 -27 -12 -4 -7 -3 -8 4 -4 7 4
12 1 12 -6 0 -9 3 -9 10 2 7 11 10 12 10 2 0 -8 -9 -16 -21 -19 -12 -4 -18
-11 -15 -20 3 -8 6 -23 6 -34 0 -17 6 -18 58 -13 31 3 72 12 91 20 40 17 44
17 36 4 -3 -6 1 -7 10 -3 12 4 13 8 5 13 -17 10 6 24 23 14 6 -4 9 -4 5 1 -4
4 1 22 11 39 11 17 24 51 31 75 6 23 14 41 17 38 7 -7 -15 -76 -34 -105 -8
-13 -12 -26 -9 -29 9 -9 46 76 56 128 7 34 6 58 -1 72 -10 21 -10 21 5 3 15
-18 21 -39 17 -59 -1 -5 3 -6 9 -2 6 4 4 19 -7 43 -9 20 -19 62 -22 92 l-5 55
-7 -45 -6 -45 -1 51 c-1 28 3 56 11 63 7 9 8 12 0 7 -8 -4 -8 0 0 18 7 13 15
22 18 20 4 -2 6 4 5 14 -1 14 10 18 54 23 l55 6 -49 1 c-35 2 -55 -3 -69 -15
-19 -18 -19 -17 -6 5 12 19 22 22 84 22 42 0 65 4 57 9 -18 11 -18 12 -3 39
11 22 11 22 -46 24 l-58 1 55 7 55 7 -45 2 c-63 2 -96 33 -96 86 1 32 -3 42
-21 50 -13 5 -23 18 -23 28 0 15 7 17 48 13 l47 -4 -40 14 -40 14 43 -6 c45
-6 48 -4 31 29 -10 21 -10 21 5 3 9 -11 16 -24 16 -30 0 -5 3 -7 6 -4 11 11
-61 119 -73 110 -3 -2 -8 0 -11 4 -4 4 -1 4 7 -1 11 -6 12 -1 7 31 -4 21 -12
44 -17 49 -7 7 -8 3 -3 -10 4 -11 4 -17 1 -14 -8 7 -37 99 -31 99 2 0 10 -15
18 -32 8 -18 15 -27 15 -20 1 21 -29 73 -39 67 -5 -3 -12 0 -16 6 -4 8 -3 9 4
5 27 -17 9 15 -24 42 -35 29 -80 49 -68 31 3 -5 11 -9 17 -9 16 0 75 -49 60
-50 -7 0 -13 4 -13 8 0 10 -44 32 -63 32 -7 0 -13 -12 -14 -26 0 -15 -7 -32
-15 -40 -11 -11 -19 -5 -48 36 -44 61 -74 70 -77 23z"/>
<path d="M2144 3576 c-54 -25 -118 -76 -135 -109 -9 -15 -8 -18 2 -12 9 6 10
4 3 -11 -5 -10 -9 -53 -9 -96 0 -42 -4 -74 -8 -71 -21 13 16 -38 40 -56 16
-11 34 -26 41 -31 9 -8 12 -7 12 5 0 8 -6 15 -14 15 -8 0 -28 12 -43 26 l-28
26 29 -21 c39 -29 104 -28 142 1 24 18 26 19 14 3 -14 -17 -13 -18 3 -12 10 4
46 7 80 7 43 0 57 3 47 10 -8 5 -36 7 -62 4 -42 -5 -47 -3 -41 12 4 10 2 15
-3 11 -6 -3 -7 12 -4 36 l5 42 3 -37 c2 -21 8 -38 13 -38 15 0 0 70 -22 105
-20 33 -26 27 -8 -8 9 -19 8 -19 -10 3 -10 13 -18 27 -16 30 2 4 -4 6 -13 6
-46 0 -95 7 -79 11 9 2 17 11 17 19 0 22 -16 17 -39 -13 -17 -25 -19 -25 -14
-6 5 24 53 61 53 43 0 -6 15 -1 32 12 43 30 146 37 202 14 20 -8 35 -20 32
-25 -3 -5 10 -23 28 -39 27 -23 31 -32 20 -36 -10 -4 -13 -2 -8 7 4 7 3 9 -2
4 -5 -5 -10 -13 -10 -18 -3 -22 -5 -23 -15 -9 -8 12 -9 10 -4 -9 5 -15 3 -21
-3 -17 -6 3 -14 1 -18 -5 -4 -7 -3 -9 4 -5 6 3 13 2 17 -4 3 -5 23 -10 43 -10
l37 -1 -30 -13 c-16 -7 -33 -9 -36 -4 -3 5 -11 -3 -17 -17 -16 -35 -15 -43 3
-19 13 16 14 16 9 2 -5 -15 0 -18 31 -18 l37 0 -5 -45 c-3 -40 -17 -77 -17
-48 0 6 -7 14 -16 17 -8 3 -13 2 -9 -3 7 -12 -22 -41 -40 -41 -23 0 -27 31 -5
37 30 8 24 30 -11 42 -68 24 -186 8 -242 -31 -15 -11 -33 -21 -40 -22 -20 -3
-36 -16 -48 -39 -8 -16 -3 -14 16 8 l27 30 -22 -32 c-12 -18 -27 -33 -34 -33
-20 0 -77 -152 -62 -167 3 -3 8 8 11 23 12 54 36 124 45 129 4 3 -1 -19 -12
-48 -27 -67 -29 -194 -4 -252 13 -32 14 -36 1 -21 -17 23 -20 14 -4 -15 5 -11
14 -17 18 -14 5 2 16 -6 25 -20 22 -34 93 -73 146 -80 l45 -7 -32 22 c-37 24
-41 35 -17 44 31 12 51 6 77 -23 l26 -30 -22 -4 c-15 -3 -12 -5 11 -6 18 0 48
6 68 14 19 8 42 12 52 9 13 -5 14 -4 3 4 -11 8 -9 12 10 23 13 7 28 12 32 11
5 -1 6 1 3 6 -3 5 5 23 18 41 19 25 25 28 30 16 3 -9 2 -13 -3 -10 -19 11 -18
-11 1 -30 17 -17 18 -17 12 -2 -4 12 -2 17 6 15 7 -2 15 3 18 11 2 8 0 11 -5
8 -7 -4 -9 13 -7 47 4 49 1 57 -22 75 -15 12 -33 21 -41 21 -8 0 -11 5 -8 10
8 13 45 13 45 1 0 -5 9 -13 20 -16 11 -3 20 -15 20 -25 0 -10 9 -20 22 -23 20
-6 20 -7 4 -32 l-17 -25 31 5 c26 5 30 2 30 -17 0 -37 -15 -51 -43 -44 -32 8
-42 -6 -19 -27 28 -26 82 -44 150 -52 l62 -7 1 34 2 33 6 -35 c4 -23 9 -31 14
-22 5 6 5 12 0 12 -4 0 -1 5 7 10 13 9 13 10 0 10 -12 0 -13 2 -1 9 10 7 5 11
-18 16 -17 3 -33 11 -36 16 -4 5 1 6 9 3 20 -8 20 3 1 22 -12 12 -15 12 -16 2
-2 -21 -17 34 -18 66 -1 24 1 27 14 16 11 -9 18 -10 28 -1 8 6 17 8 21 4 14
-14 -15 52 -30 68 -8 9 -14 27 -13 40 4 40 -1 60 -11 54 -5 -3 -10 -1 -10 4 0
6 5 11 10 11 6 0 10 5 10 11 0 5 -6 7 -12 3 -7 -4 -5 2 5 14 12 12 16 26 11
34 -6 10 -5 11 8 1 13 -11 15 -9 16 17 0 21 -3 28 -11 23 -7 -4 -6 1 2 10 11
13 17 15 28 6 7 -7 16 -9 20 -5 3 3 1 6 -5 6 -7 0 -8 9 -3 28 11 35 -1 67 -33
88 -21 13 -26 24 -26 58 0 22 7 50 15 60 22 29 18 53 -11 73 -14 10 -34 26
-44 35 -10 9 -20 14 -23 12 -2 -2 -10 2 -17 11 -9 11 -17 12 -30 5 -16 -9 -18
-7 -15 11 3 12 2 19 -2 16 -3 -4 -15 -2 -27 4 -19 9 -19 9 -3 -4 20 -16 23
-32 5 -21 -7 4 -3 -4 9 -17 29 -32 30 -48 10 -84 -12 -20 -16 -23 -12 -8 6 23
-7 36 -44 41 -21 3 -23 0 -19 -26 3 -24 1 -28 -14 -24 -21 5 -23 13 -7 29 9 9
7 11 -7 7 -12 -3 -27 3 -38 15 -11 12 -15 21 -11 21 5 0 -7 16 -25 35 -34 35
-34 37 -19 63 l15 27 -51 3 c-68 4 -185 -23 -232 -54 l-38 -25 28 25 c15 14
52 33 82 42 30 8 55 17 55 20 0 10 -39 1 -86 -20z m98 -459 c-28 -29 -29 -46
-2 -22 21 19 27 21 97 31 36 5 46 2 67 -19 16 -16 23 -32 20 -42 -4 -8 -1 -21
5 -29 9 -10 5 -17 -16 -31 -34 -23 -53 -45 -52 -65 1 -13 1 -13 6 0 9 25 46
60 62 59 11 0 10 -3 -4 -9 -45 -18 -60 -72 -18 -66 10 2 12 1 5 -1 -7 -3 -10
-8 -7 -13 3 -5 0 -12 -6 -16 -8 -4 -9 -3 -5 4 4 7 2 12 -3 12 -13 0 -13 -3 -5
-24 3 -9 18 -17 33 -17 26 -1 26 -1 -4 -9 -24 -6 -26 -8 -7 -9 66 -3 -26 -131
-95 -131 -25 0 -60 26 -74 53 -9 19 -8 19 10 -3 23 -28 28 -15 6 14 -8 11 -15
30 -15 43 0 13 -4 23 -10 23 -5 0 -6 -7 -3 -17 4 -11 3 -14 -5 -9 -18 11 -16
173 2 183 21 13 46 68 36 83 -6 10 -14 5 -30 -21 -12 -19 -20 -27 -18 -19 3 8
-5 22 -16 32 l-21 17 25 18 c51 38 77 38 42 0z"/>
<path d="M3440 3574 c0 -2 10 -9 23 -14 17 -8 15 -9 -13 -3 -61 11 -150 4
-191 -17 -45 -23 -53 -25 -43 -7 4 6 -2 4 -14 -7 -12 -10 -20 -23 -19 -29 1
-6 -5 -11 -13 -12 -8 0 -15 -8 -15 -17 0 -27 -7 -26 -55 13 -31 26 -63 40
-103 49 -32 6 -61 10 -63 7 -3 -3 14 -8 38 -12 63 -10 125 -42 150 -78 l21
-32 -39 36 c-45 42 -79 55 -164 65 l-60 7 -1 -34 -2 -34 -7 35 -7 35 -2 -37
c-1 -31 2 -38 18 -38 28 0 34 -14 48 -104 4 -27 2 -41 -8 -47 -12 -7 -12 -9 1
-9 13 0 13 -1 0 -10 -21 -14 -33 -12 -24 3 4 6 -5 1 -19 -12 -24 -22 -39 -60
-19 -48 4 3 8 -7 9 -21 1 -25 0 -26 -13 -7 -8 10 -14 14 -14 8 0 -5 10 -18 22
-29 12 -10 18 -13 13 -5 -6 10 -4 12 4 6 9 -5 10 -10 2 -18 -6 -6 -11 -16 -11
-22 0 -5 5 -3 10 5 8 12 10 11 10 -7 0 -13 -6 -23 -12 -23 -10 0 -10 -2 0 -9
8 -4 13 -12 12 -17 -1 -4 7 -11 17 -15 14 -6 15 -8 2 -8 -8 -1 -30 -17 -47
-37 l-32 -36 53 7 c34 4 47 3 38 -3 -8 -6 -21 -8 -29 -4 -11 4 -13 1 -7 -8 5
-8 4 -11 -2 -7 -6 4 -14 0 -17 -9 -3 -8 -2 -12 4 -9 6 3 7 -1 4 -9 -4 -12 0
-16 15 -16 18 0 20 -3 11 -19 -5 -11 -10 -29 -10 -41 0 -12 -4 -18 -10 -15 -5
3 -10 1 -10 -4 0 -6 7 -11 15 -11 9 0 18 -7 21 -15 4 -8 11 -12 17 -8 6 3 2
-5 -9 -19 -10 -14 -21 -24 -23 -22 -2 2 2 12 10 21 13 16 12 17 -4 4 -11 -9
-15 -21 -11 -34 4 -12 1 -23 -7 -28 -11 -7 -10 -9 5 -9 12 0 16 -5 13 -15 -4
-8 -1 -17 5 -21 7 -5 8 -2 3 7 -8 12 -6 12 8 0 24 -19 21 -29 -6 -24 -15 3
-30 -4 -47 -23 -14 -15 -19 -24 -11 -19 10 6 12 2 6 -14 -6 -18 -2 -21 27 -21
24 0 29 -3 18 -9 -8 -6 -18 -7 -24 -4 -5 3 -6 1 -2 -5 3 -6 2 -14 -4 -17 -6
-4 -9 -3 -8 2 2 4 -6 19 -16 33 -17 23 -17 17 0 -25 3 -8 1 -15 -5 -15 -6 0
-8 -7 -4 -16 3 -9 9 -12 12 -7 3 4 24 5 46 2 l40 -6 -40 -3 c-32 -2 -35 -4
-12 -7 15 -2 27 -10 27 -16 0 -7 4 -6 10 3 7 11 10 1 11 -35 1 -27 3 -42 6
-32 2 9 9 15 14 12 5 -4 9 -1 9 4 0 6 5 11 10 11 6 0 10 -7 10 -15 0 -8 9 -19
20 -25 24 -13 24 -31 4 -85 -9 -22 -19 -56 -23 -75 -5 -26 -12 -36 -29 -38
-22 -3 -30 12 -12 23 13 8 13 56 -1 75 -8 12 -9 11 -5 -6 4 -14 -3 -29 -24
-49 -33 -32 -44 -93 -14 -81 9 3 20 6 25 6 6 0 7 5 4 10 -12 19 45 10 66 -11
11 -11 19 -14 17 -7 -2 7 2 13 7 13 6 0 9 -4 7 -8 -1 -5 2 -6 8 -2 6 3 8 10 5
15 -3 5 4 11 15 15 11 3 34 18 50 32 17 13 30 21 30 17 0 -4 10 3 22 16 24 26
36 70 18 70 -5 0 -10 23 -10 53 0 31 -4 47 -9 39 -6 -10 -10 -10 -21 3 -11 13
-11 19 3 33 11 10 17 12 17 4 0 -7 5 -12 11 -12 5 0 8 4 5 8 -3 5 8 6 25 4 31
-5 38 10 18 38 -8 12 -9 9 -4 -10 5 -20 4 -22 -4 -9 -6 9 -12 26 -14 38 -2 11
-7 24 -12 28 -4 5 -5 2 0 -6 5 -9 4 -12 -3 -7 -14 8 -13 116 2 116 6 0 4 5 -4
10 -8 5 -10 10 -4 10 6 0 17 -7 25 -16 27 -33 73 -47 156 -48 44 -1 79 2 77 5
-6 11 44 32 57 24 8 -5 10 -4 5 3 -6 11 6 17 18 10 13 -7 81 74 108 127 17 33
34 62 37 65 4 3 8 25 9 50 l2 45 -18 -60 c-10 -33 -24 -69 -31 -80 l-13 -20 8
20 c4 11 16 52 26 90 27 98 30 326 5 408 -10 32 -15 63 -11 69 4 6 3 8 -3 5
-6 -4 -15 5 -21 18 -7 14 -15 24 -19 23 -8 -3 -13 5 -13 23 0 5 5 7 11 3 8 -4
8 0 0 15 -11 20 -51 48 -51 36 0 -3 -10 1 -22 10 -13 8 -23 20 -23 27 0 6 -10
14 -22 19 -13 5 -23 6 -23 3z m-109 -54 c19 0 8 -29 -13 -36 -21 -6 -21 -7 4
-20 14 -7 28 -21 32 -31 5 -16 4 -15 -9 1 -8 11 -17 17 -20 14 -3 -3 1 -11 10
-18 8 -7 15 -18 15 -26 0 -7 9 -21 19 -31 32 -30 44 -127 38 -291 -3 -81 -9
-158 -13 -171 -5 -17 -4 -22 4 -17 7 4 12 16 12 27 0 10 4 19 9 19 5 0 12 9
16 19 9 29 33 33 81 12 29 -13 45 -27 49 -44 12 -47 -48 -130 -112 -158 -49
-21 -88 -25 -78 -9 11 18 13 80 2 80 -5 0 -3 8 4 18 13 15 12 16 -3 4 -9 -8
-14 -20 -11 -27 7 -21 -32 -79 -62 -93 -34 -15 -58 -15 -49 0 5 7 2 9 -8 5 -9
-3 -24 4 -37 17 l-20 22 22 13 c20 13 21 13 8 -3 -12 -15 -12 -19 4 -34 18
-16 18 -16 6 1 -12 15 -11 20 3 35 25 29 20 79 -11 108 -21 20 -27 33 -24 59
2 27 -3 37 -28 56 -32 24 -43 56 -15 45 10 -4 13 -2 8 6 -5 8 5 9 34 5 28 -3
42 -1 42 6 0 7 5 5 10 -3 8 -12 10 -10 10 8 0 13 -4 21 -9 18 -5 -4 -7 3 -4
15 4 14 1 20 -8 19 -26 -4 -39 0 -39 11 0 8 5 8 15 -1 9 -8 5 11 -13 53 -15
36 -30 63 -35 60 -7 -4 -4 32 9 95 2 12 12 22 22 22 11 0 13 3 5 8 -8 5 -9 13
-3 22 8 13 10 13 10 1 0 -8 3 -11 6 -8 4 4 2 12 -4 20 -6 7 -9 22 -6 33 7 25
83 76 102 69 8 -3 18 -5 23 -5z"/>
<path d="M4230 3556 c-25 -7 -54 -17 -64 -21 -13 -6 -17 -5 -12 3 3 6 1 14 -5
18 -8 5 -10 1 -7 -14 4 -14 -4 -30 -29 -54 -19 -18 -37 -32 -41 -30 -3 2 -8
-2 -11 -9 -2 -7 1 -9 8 -5 7 5 9 1 5 -9 -6 -14 -8 -14 -25 1 -22 20 -25 29 -6
18 7 -4 9 -3 4 2 -5 5 -12 9 -15 10 -4 0 -28 11 -54 23 -26 12 -77 24 -113 28
l-65 6 0 -32 c0 -22 -4 -30 -12 -25 -7 4 -8 3 -4 -5 4 -6 11 -9 16 -6 5 3 16
-2 25 -12 16 -16 16 -17 -1 -23 -18 -7 -18 -8 3 -14 17 -5 22 -16 25 -56 2
-31 -1 -50 -8 -50 -5 0 -19 -7 -30 -16 -18 -15 -18 -15 3 -5 12 6 28 11 35 10
7 0 -5 -7 -27 -16 -22 -9 -41 -17 -42 -17 -1 -1 -4 -15 -8 -31 l-6 -30 15 30
c17 36 19 32 7 -12 -5 -18 -6 -32 -3 -32 23 4 24 -4 2 -17 -23 -14 -23 -15 -3
-11 16 4 20 1 16 -11 -5 -11 -3 -13 7 -7 9 5 11 4 6 -4 -4 -6 -12 -8 -18 -5
-6 4 -9 1 -6 -7 3 -8 10 -14 16 -14 5 0 14 -4 19 -9 5 -5 3 -6 -4 -2 -9 5 -13
0 -13 -12 0 -15 5 -19 23 -16 22 4 22 4 -1 -6 -13 -5 -29 -7 -35 -3 -7 3 -9 3
-5 -2 5 -5 -1 -14 -12 -22 -11 -8 -20 -22 -19 -31 0 -12 3 -11 9 6 12 28 20
29 13 2 -5 -19 -2 -20 38 -15 24 3 37 2 29 -1 -47 -20 -66 -64 -29 -64 16 0
19 -3 11 -12 -14 -18 -20 -87 -7 -85 5 1 9 -3 8 -10 -2 -8 4 -10 15 -6 15 6
15 5 3 -10 -7 -9 -17 -15 -21 -12 -5 3 -6 -3 -3 -14 3 -10 0 -22 -6 -25 -6 -4
-11 -19 -10 -34 l1 -27 8 25 c7 23 8 23 9 4 1 -12 8 -25 17 -28 13 -5 14 -9 4
-21 -7 -8 -18 -15 -25 -15 -15 0 -45 -32 -45 -48 0 -7 12 -12 26 -12 14 0 23
-4 20 -9 -8 -13 -47 -1 -53 16 -6 16 34 63 53 63 7 0 16 5 19 11 16 24 -31 2
-58 -28 -22 -25 -27 -38 -21 -55 4 -13 7 -27 6 -32 -2 -5 4 -6 12 -3 10 4 13
1 9 -9 -4 -11 4 -14 32 -14 l38 0 -6 -114 c-4 -99 -16 -156 -33 -156 -3 0 -2
6 2 13 4 6 3 8 -1 4 -5 -4 -10 -13 -12 -20 -17 -72 -18 -67 21 -67 22 0 35 4
31 10 -3 6 0 10 7 10 10 0 10 2 -1 9 -11 7 -10 13 3 33 9 14 27 30 40 36 20 9
27 7 46 -13 13 -14 19 -29 15 -36 -5 -8 -4 -10 3 -5 7 4 12 2 12 -4 0 -6 4 -9
9 -6 5 4 12 0 14 -6 4 -8 6 -7 6 4 1 9 6 20 13 24 7 5 8 3 3 -5 -5 -10 -3 -10
11 -1 11 7 29 35 42 63 24 56 28 82 11 72 -7 -5 -9 13 -8 53 2 46 5 59 16 55
8 -3 13 3 14 18 l1 24 8 -25 8 -25 1 28 c1 18 -4 27 -15 27 -9 0 -12 5 -8 12
4 6 3 8 -4 4 -6 -3 -17 3 -26 15 -12 18 -13 24 -1 35 7 8 19 14 25 14 7 0 9 8
5 20 -4 13 -2 20 7 20 7 1 3 9 -11 20 -13 11 -19 20 -13 20 5 0 15 -7 23 -16
22 -27 68 -45 122 -47 36 -2 51 -7 49 -16 -1 -7 2 -10 8 -6 7 4 6 13 -1 27
-10 19 -9 20 15 16 14 -3 27 -1 28 3 2 5 13 6 25 3 13 -4 20 -11 17 -16 -11
-18 37 13 77 49 37 34 53 62 27 47 -8 -4 -10 -3 -5 2 5 5 14 9 19 9 6 0 13 6
16 14 3 9 0 11 -8 6 -8 -5 -11 -4 -6 3 3 6 15 9 25 7 10 -2 18 2 18 8 -1 7 9
45 22 84 12 40 21 78 19 85 -3 7 -11 -12 -18 -42 -7 -30 -19 -66 -27 -80 -9
-15 -12 -17 -7 -5 25 76 33 138 36 275 2 85 0 173 -4 195 -6 33 -4 31 12 -15
22 -68 25 -54 5 25 -9 33 -24 67 -34 75 -10 9 -24 26 -31 39 -7 14 -15 19 -19
13 -3 -5 -14 1 -25 17 l-20 26 22 -19 c13 -12 22 -14 22 -7 0 7 5 9 13 5 8 -5
7 -2 -2 9 -8 10 -16 15 -19 12 -8 -8 -32 16 -26 26 3 5 0 8 -8 7 -7 -2 -12 3
-10 10 1 8 -2 11 -7 8 -5 -3 -25 1 -44 9 -23 9 -38 11 -42 5 -3 -6 -12 -10
-18 -10 -8 0 -8 3 1 9 11 7 10 10 -3 15 -24 9 -53 7 -105 -8z m90 -23 c19 -3
32 -15 40 -33 16 -39 46 -64 66 -56 29 11 54 -3 54 -30 0 -33 -32 -94 -64
-121 l-25 -22 -22 60 c-23 62 -76 145 -86 135 -4 -3 -12 -1 -20 5 -21 18 -15
-3 10 -29 18 -21 19 -24 4 -19 -11 4 -16 3 -12 -3 3 -6 12 -10 19 -10 60 0 70
-519 11 -566 -20 -15 -40 -68 -22 -58 6 4 1 -5 -13 -19 -34 -36 -80 -44 -106
-20 -11 10 -14 14 -7 9 9 -6 18 -5 25 2 9 9 8 12 -5 12 -9 0 -17 5 -17 11 0 6
-7 8 -16 5 -8 -3 -12 -2 -9 4 3 6 15 10 25 10 23 0 36 50 21 79 -12 21 -65 63
-72 56 -3 -2 -3 14 -1 36 2 21 8 36 13 33 15 -9 10 3 -8 17 -11 10 -14 10 -9
2 4 -8 1 -13 -8 -13 -9 0 -16 7 -16 15 0 8 -4 15 -10 15 -5 0 -10 9 -10 20 0
18 6 20 53 19 38 0 47 -3 32 -9 -11 -5 -15 -9 -8 -9 21 -2 43 11 43 25 0 8 5
14 11 14 5 0 7 5 4 10 -4 6 -10 8 -14 5 -5 -2 -19 8 -32 23 l-24 27 28 -24
c15 -14 27 -21 27 -17 0 12 -40 61 -51 62 -19 3 -20 4 -13 15 3 6 7 45 8 85 1
52 5 77 15 83 11 7 11 10 -3 12 -15 4 -16 6 -1 24 l15 20 -6 -20 c-5 -16 -3
-15 12 5 28 38 28 55 -2 35 -34 -22 -32 2 4 43 34 38 89 64 121 56 13 -3 36
-7 51 -11z"/>
<path d="M4690 3491 c0 -18 -5 -31 -12 -31 -7 -1 -3 -9 8 -19 12 -9 24 -26 27
-37 4 -17 5 -16 6 3 0 12 -7 27 -16 32 -10 6 -13 11 -7 11 19 0 31 -22 40 -70
5 -34 9 -40 14 -25 4 11 10 30 15 43 4 12 11 22 16 22 5 0 29 15 54 34 l44 34
-32 12 c-18 6 -60 14 -94 17 l-63 6 0 -32z"/>
<path d="M5252 3498 c-14 -9 -30 -14 -35 -11 -6 3 -7 1 -3 -5 3 -6 1 -14 -5
-17 -5 -4 -8 -13 -5 -20 2 -7 -2 -21 -9 -32 -8 -10 -17 -39 -21 -65 -4 -26
-10 -46 -14 -43 -4 2 -23 -10 -43 -28 -34 -31 -58 -89 -40 -100 4 -3 8 8 9 24
1 30 25 63 56 80 12 6 18 6 18 -1 0 -5 -6 -10 -13 -10 -18 0 -43 -28 -52 -58
-5 -16 -1 -30 12 -45 14 -16 14 -19 1 -9 -21 17 -28 3 -12 -27 11 -21 13 -22
17 -5 4 17 5 17 6 -2 0 -11 6 -25 13 -32 9 -9 9 -12 0 -12 -7 0 -12 5 -12 10
0 6 -5 10 -10 10 -7 0 -7 -7 0 -20 6 -11 15 -18 21 -15 21 13 7 -8 -21 -32
-44 -37 -40 -54 13 -48 23 3 35 2 27 -1 -8 -4 -24 -14 -34 -23 -11 -9 -16 -10
-12 -3 4 6 3 12 -2 12 -10 0 -22 -24 -22 -43 0 -7 4 -6 10 3 8 12 10 12 10 1
0 -9 8 -12 25 -9 20 4 23 2 14 -8 -6 -7 -17 -10 -25 -7 -21 8 -19 -70 3 -88
15 -12 16 -12 8 1 -8 13 -6 13 8 1 17 -13 14 -36 -4 -26 -5 4 -14 -6 -19 -20
-9 -24 -15 -27 -44 -23 -19 2 -32 0 -29 -5 3 -5 24 -7 46 -4 27 4 36 2 26 -4
-24 -15 -65 -10 -84 11 -10 11 -13 20 -7 20 18 0 2 30 -17 31 -10 0 -11 2 -3
6 6 2 12 12 12 21 0 14 -2 14 -9 3 -16 -25 -25 29 -25 159 0 69 -2 103 -4 75
-3 -46 -22 -91 -22 -52 0 11 -12 18 -37 22 -114 20 -127 29 -155 104 l-17 46
1 -152 c1 -84 7 -174 14 -200 7 -26 8 -49 4 -51 -11 -4 -1 -32 12 -32 5 0 6 6
3 13 -4 6 2 1 13 -13 11 -13 18 -29 15 -34 -4 -5 -1 -6 7 -1 10 6 12 4 7 -7
-3 -10 0 -15 11 -14 9 0 16 -5 15 -11 -2 -7 0 -12 5 -12 19 3 33 -2 27 -10 -3
-5 0 -13 6 -17 8 -4 9 -3 5 4 -9 15 -6 15 39 -4 26 -10 60 -14 106 -12 37 2
65 0 62 -4 -2 -5 -11 -8 -19 -8 -8 0 -14 -8 -14 -17 0 -15 2 -16 10 -3 7 11
10 12 10 2 0 -10 9 -12 32 -6 29 6 31 5 20 -9 -7 -9 -22 -14 -33 -12 -12 2
-19 -2 -19 -11 0 -8 4 -12 10 -9 6 3 7 -1 4 -9 -5 -12 1 -16 27 -17 24 -1 27
-3 12 -6 -23 -4 -27 -33 -8 -50 4 -5 5 2 2 15 -3 14 -1 22 8 22 11 0 11 -11
-1 -62 -16 -67 -30 -95 -20 -38 5 29 3 27 -14 -15 -23 -59 -23 -58 -8 -49 7 4
8 3 4 -5 -4 -6 -11 -9 -15 -6 -10 5 -48 -34 -43 -44 5 -8 -57 -30 -88 -30 -14
-1 -31 3 -39 8 -11 7 -10 10 6 15 25 8 53 57 53 93 0 34 -27 76 -42 67 -7 -4
-8 -2 -4 4 11 18 20 14 39 -17 21 -36 22 -80 1 -109 -9 -13 -14 -25 -11 -28 2
-3 14 11 25 30 16 27 19 42 12 70 -4 20 -13 42 -19 50 -6 7 -8 15 -5 19 8 7
-36 1 -60 -9 -16 -6 -18 -4 -13 15 4 16 2 20 -6 13 -7 -5 -23 -9 -36 -10 -40
-2 -74 -44 -81 -101 -3 -27 -3 -48 2 -45 4 3 8 0 8 -5 0 -6 -6 -11 -12 -11 -7
0 -2 -6 11 -13 14 -6 26 -19 28 -27 4 -13 3 -13 -6 0 -6 8 -11 10 -11 4 0 -12
32 -44 45 -44 5 0 0 7 -11 15 -10 8 -14 15 -7 15 6 0 15 -5 19 -11 3 -6 27
-20 51 -31 35 -15 64 -19 131 -18 128 3 141 4 135 13 -2 4 4 7 14 7 15 0 16 2
3 10 -8 5 -10 10 -4 10 5 0 18 6 29 13 16 13 15 14 -13 9 -37 -5 -38 -3 -12
40 19 32 19 32 -1 64 -27 44 -8 53 41 19 43 -30 52 -45 39 -66 -20 -32 -8 -43
17 -15 18 20 22 31 14 36 -9 5 -10 24 -5 61 8 61 15 73 55 92 23 12 29 12 39
-2 6 -9 9 -10 5 -3 -5 12 -2 12 17 2 19 -11 24 -10 36 6 7 10 13 23 13 28 0 6
-4 5 -9 -2 -7 -11 -10 -10 -15 3 -3 9 -3 22 1 27 3 7 1 8 -6 4 -6 -4 -14 0
-17 9 -6 14 -8 14 -25 -1 -10 -9 -24 -14 -31 -11 -9 4 -7 6 4 6 11 1 15 6 11
16 -3 9 2 21 11 28 11 8 15 19 10 30 -6 16 -12 18 -54 21 -8 1 -16 9 -18 19
-2 9 -8 14 -14 11 -7 -4 -8 -2 -4 5 10 15 26 5 27 -17 0 -11 2 -12 6 -4 2 6 9
10 13 7 5 -3 11 -1 15 5 3 5 -1 10 -9 10 -8 0 -18 5 -21 10 -11 17 12 11 36
-11 13 -11 18 -18 12 -14 -7 3 -13 2 -13 -3 0 -27 44 -17 45 10 0 3 4 10 9 15
5 5 6 3 2 -4 -10 -18 9 -16 24 2 7 8 10 25 7 37 -5 16 1 30 18 48 27 29 42 75
26 84 -7 5 -12 -5 -12 -26 l-2 -33 -4 30 c-5 32 -29 65 -48 65 -6 0 -12 7 -12
15 0 12 6 10 24 -7 31 -29 29 -16 -2 18 -14 15 -24 33 -21 40 2 6 1 28 -4 49
l-8 36 48 -4 48 -5 -14 37 c-13 33 -13 34 1 17 13 -17 15 -17 15 -4 0 15 -16
32 -30 33 -3 0 -14 6 -25 14 -15 9 -16 11 -2 7 11 -4 17 0 17 10 0 10 -6 14
-14 11 -8 -3 -20 2 -28 11 -8 10 -8 13 -1 9 17 -11 24 8 14 35 -6 15 -11 18
-12 8 -1 -8 -5 31 -8 86 -5 79 -10 106 -24 122 -23 25 -17 38 23 45 17 4 30
13 30 22 0 22 -142 16 -178 -7z"/>
<path d="M2335 1792 c-15 -5 -21 -17 -23 -44 -3 -32 0 -39 21 -47 33 -13 38
-30 42 -146 3 -76 2 -87 -4 -45 -7 52 -17 36 -12 -19 1 -13 -4 -28 -11 -32 -9
-6 -6 -9 11 -9 20 0 22 -2 10 -16 -8 -10 -15 -12 -17 -5 -2 6 -19 11 -38 11
-33 0 -34 -1 -34 -40 l0 -40 53 0 52 -1 -30 -17 c-16 -9 -33 -16 -37 -17 -5 0
-8 -3 -8 -7 0 -5 0 -15 0 -24 0 -12 6 -15 26 -10 17 5 23 3 19 -4 -3 -5 -15
-10 -26 -10 -20 0 -27 -34 -9 -45 5 -3 7 0 4 8 -3 8 -2 17 3 20 4 3 9 -8 10
-24 1 -17 -2 -27 -7 -24 -15 9 -12 -6 5 -25 13 -15 13 -19 -5 -38 -23 -24 -25
-33 -8 -30 8 2 12 -7 10 -24 -2 -14 1 -29 6 -32 6 -3 8 4 6 16 -2 13 -1 16 2
8 3 -8 14 -21 23 -29 13 -11 13 -12 1 -9 -8 3 -26 -3 -39 -13 -13 -10 -27 -16
-32 -13 -5 3 -6 -2 -3 -11 6 -14 9 -13 29 5 13 12 31 20 42 17 16 -4 15 -5 -3
-6 -11 0 -29 -10 -39 -21 -9 -10 -22 -18 -27 -17 -6 1 -13 -4 -15 -11 -3 -7
-1 -12 4 -11 4 1 26 1 47 0 40 -1 44 -13 5 -15 -44 -2 -51 -62 -8 -73 8 -3 7
0 -3 7 -19 12 -24 35 -9 44 5 4 7 -3 4 -14 -4 -16 0 -19 23 -17 28 2 29 0 32
-53 2 -30 7 -73 12 -95 6 -25 5 -41 0 -43 -6 -2 -6 -11 1 -23 5 -11 14 -17 19
-14 5 3 16 -5 24 -18 37 -55 138 -87 216 -67 25 6 53 12 62 13 9 1 15 4 13 8
-3 3 5 15 16 25 11 10 17 24 14 32 -3 7 0 22 6 33 9 17 13 18 27 7 12 -8 11
-5 -3 11 -11 14 -15 21 -9 18 14 -8 24 23 24 76 0 33 -3 37 -24 37 -22 0 -25
-5 -31 -55 -4 -30 -11 -58 -16 -61 -5 -3 -6 -10 -3 -16 5 -7 2 -8 -6 -3 -12 7
-30 -10 -30 -30 0 -5 4 -3 10 5 5 8 12 12 15 8 4 -4 -5 -14 -18 -23 -32 -21
-72 -5 -64 26 3 10 0 17 -7 16 -11 -2 -13 4 -15 58 -1 23 -3 27 -11 15 -7 -11
-10 -3 -10 30 0 33 3 41 10 30 9 -13 14 -8 12 11 -1 4 8 4 20 1 18 -4 20 -2
16 21 -3 15 -1 24 3 21 5 -3 9 -13 10 -22 0 -10 3 -12 5 -5 7 16 -15 55 -26
48 -16 -10 -24 19 -25 83 -1 49 2 61 13 57 7 -2 10 0 7 5 -3 6 1 10 9 10 9 0
16 5 16 11 0 5 -4 8 -9 5 -5 -3 -12 1 -15 10 -4 10 -2 13 7 8 7 -5 5 0 -3 11
-12 15 -12 17 -1 10 11 -6 13 -4 8 8 -3 9 0 18 9 21 10 4 13 2 8 -7 -5 -7 0
-6 10 3 11 8 14 16 7 18 -6 2 -11 8 -11 13 0 6 4 8 9 4 16 -9 23 33 9 57 -7
13 -11 27 -9 33 1 5 -1 7 -4 3 -11 -10 -43 9 -56 33 -7 13 -7 19 -1 15 6 -3
13 -2 17 4 3 5 39 10 79 10 57 0 77 4 87 17 10 11 10 14 2 9 -10 -5 -13 4 -13
33 l0 41 -92 2 -93 2 100 6 100 6 -87 2 -88 2 -1 38 -2 37 -6 -40 c-4 -26 -9
-36 -14 -27 -5 7 -6 21 -2 31 6 19 -6 48 -32 81 -17 22 -12 90 7 91 10 0 11 2
2 6 -6 2 -9 10 -5 16 4 7 1 7 -9 -1 -13 -10 -18 -10 -24 -1 -4 8 -3 9 4 5 16
-10 15 16 -2 48 -10 21 -15 23 -19 12 -4 -9 1 -20 11 -25 9 -6 12 -11 7 -11
-6 0 -15 4 -20 9 -16 15 -116 41 -156 41 -35 0 -38 -2 -42 -32 l-4 -33 -1 33
c-2 26 3 35 18 39 11 3 20 9 20 14 0 5 -1 9 -2 8 -2 -1 -12 -4 -23 -7z"/>
<path d="M1145 1780 c-3 -5 -4 -10 0 -10 3 0 -10 -13 -28 -30 -19 -16 -39 -30
-45 -30 -5 0 -13 -7 -16 -16 -10 -25 -7 -29 7 -11 10 15 12 11 9 -27 -2 -24 2
-54 9 -67 7 -13 12 -30 11 -37 -2 -7 1 -11 5 -10 15 4 53 -13 48 -22 -3 -5 0
-12 6 -16 7 -4 9 -3 6 3 -5 7 12 13 46 17 72 7 77 8 72 16 -5 8 29 42 36 36 2
-3 4 22 4 54 0 64 -21 104 -66 127 -15 8 -18 13 -8 13 8 0 21 -6 29 -12 12
-11 12 -10 1 4 -10 13 -23 15 -68 11 -41 -5 -54 -3 -49 5 4 7 5 12 2 12 -3 0
-8 -4 -11 -10z m91 -92 c53 -47 24 -118 -47 -118 -71 0 -112 66 -71 116 29 37
79 38 118 2z"/>
<path d="M450 1764 c-19 -8 -49 -28 -66 -45 -36 -34 -68 -43 -85 -23 -6 8 -8
14 -4 14 4 0 2 7 -5 15 -9 10 -9 15 -1 15 6 0 11 4 11 8 0 5 -6 9 -14 9 -8 0
-13 -9 -11 -23 1 -15 -2 -21 -11 -17 -7 2 -10 11 -7 19 3 8 0 14 -7 14 -6 0
-8 -4 -5 -10 3 -5 1 -10 -4 -10 -6 0 -11 7 -11 15 0 18 -16 20 -24 3 -3 -10
-7 -9 -15 2 -6 11 -25 16 -53 15 -40 0 -43 -2 -47 -30 -4 -30 -4 -30 -12 -5
-8 24 -8 23 -6 -5 1 -22 6 -29 19 -27 21 3 41 -31 35 -61 -4 -20 -4 -20 -6 3
-1 14 -6 32 -11 40 -6 10 -7 3 -3 -24 4 -27 2 -41 -8 -47 -9 -7 -4 -8 16 -4
l30 6 -31 -14 c-24 -11 -34 -25 -41 -56 -6 -22 -7 -39 -3 -36 4 3 13 -2 20
-10 7 -8 10 -15 7 -15 -10 0 14 -85 26 -92 8 -5 7 -8 -5 -8 -9 0 -18 8 -21 18
-2 9 -4 6 -3 -8 1 -18 -4 -24 -15 -22 -9 1 -21 -9 -27 -23 -6 -14 -8 -24 -4
-24 4 1 12 0 17 -1 6 -1 26 -2 45 -1 30 1 32 0 13 -9 -19 -8 -43 -38 -43 -54
0 -3 10 -6 22 -6 17 0 19 -3 10 -12 -20 -20 -15 -75 9 -91 20 -15 10 -35 -10
-22 -6 3 -15 -3 -21 -14 -6 -13 -7 -22 0 -26 5 -3 7 -19 3 -35 -5 -27 -3 -30
21 -30 14 0 26 -4 26 -9 0 -13 -27 -32 -42 -30 -25 3 -38 -1 -38 -12 0 -8 6
-7 18 2 15 11 15 11 4 -1 -7 -8 -18 -15 -25 -15 -6 0 -13 -9 -15 -20 -3 -16
-1 -17 7 -5 7 10 11 11 11 3 0 -7 12 -13 28 -14 24 0 24 -1 7 -8 -11 -5 -24
-6 -30 -3 -5 3 -5 -1 2 -8 6 -7 9 -19 6 -26 -4 -10 5 -14 33 -14 29 0 35 -3
24 -10 -10 -6 -11 -10 -2 -10 7 0 12 -14 11 -37 0 -57 -13 -114 -24 -113 -5 1
-11 -4 -14 -11 -2 -7 1 -9 8 -5 6 4 11 5 11 1 0 -3 -11 -10 -25 -15 -17 -7
-25 -17 -24 -32 1 -22 1 -22 9 2 8 24 8 24 9 3 1 -24 31 -33 31 -10 0 20 38
35 108 41 48 4 62 3 57 -7 -4 -6 5 0 19 16 27 29 41 33 52 15 4 -6 3 -8 -3 -5
-11 7 -28 -22 -18 -31 3 -3 5 0 5 7 0 7 5 9 10 6 6 -4 7 -11 4 -17 -4 -7 -2
-8 5 -4 6 4 8 13 4 19 -4 7 12 -5 35 -26 23 -20 47 -37 54 -37 6 0 9 -3 6 -6
-4 -3 -15 -1 -26 5 -16 9 -20 8 -18 -4 1 -8 6 -18 11 -22 4 -4 5 -3 1 4 -5 9
9 10 51 6 167 -15 260 8 338 83 25 24 41 38 35 32 -5 -7 -10 -16 -10 -21 0 -5
12 6 27 24 18 21 23 34 15 37 -9 3 -9 9 0 25 13 25 17 138 5 182 -5 22 -5 26
3 13 5 -9 14 -40 19 -70 6 -36 9 -43 10 -22 0 17 -5 52 -13 78 -8 27 -12 55
-9 64 4 13 3 14 -5 4 -7 -11 -10 -11 -16 3 -3 9 -10 14 -15 10 -5 -3 -13 0
-17 6 -4 8 -3 9 4 5 7 -4 12 -3 12 2 0 15 -60 67 -78 67 -9 0 -17 5 -17 12 0
6 -4 15 -9 20 -5 5 -6 3 -2 -4 4 -7 3 -13 -1 -13 -5 0 -9 -18 -10 -40 -2 -46
-48 -154 -62 -146 -5 3 -14 -1 -21 -9 -11 -13 -10 -14 4 -9 10 4 16 1 16 -7
-1 -28 -37 -117 -54 -135 -12 -11 -14 -20 -8 -22 17 -5 -13 -47 -44 -60 -50
-23 -153 -5 -147 26 2 6 -4 9 -12 6 -10 -4 -16 0 -17 12 -2 34 -3 39 -12 53
-5 8 -4 16 4 21 7 5 11 19 8 34 -3 14 -1 23 3 20 5 -3 10 -17 10 -32 2 -24 2
-25 6 -4 3 13 -3 35 -12 49 -11 16 -15 36 -11 54 8 39 -3 90 -18 82 -6 -3 -3
3 7 15 11 12 16 26 12 34 -6 10 -5 10 5 1 11 -10 11 -15 0 -28 -8 -10 -9 -15
-1 -15 11 0 13 6 15 50 1 16 6 24 15 22 12 -3 12 0 2 11 -10 13 -7 14 26 6 54
-12 64 -10 23 6 -19 7 -28 14 -20 14 8 0 34 -8 56 -18 40 -18 59 -36 59 -56 0
-5 7 -10 15 -10 9 0 14 -8 12 -20 -2 -15 -1 -17 6 -6 8 11 11 9 17 -8 4 -13 9
-20 12 -17 3 3 -5 21 -17 40 -12 20 -19 36 -15 36 3 0 1 9 -5 21 -14 25 0 45
37 52 31 6 83 -10 80 -25 -1 -6 5 -13 13 -15 13 -4 13 -3 0 6 -13 9 -13 11 0
11 23 0 0 17 -55 39 -27 11 -43 20 -35 21 31 1 121 50 164 90 25 23 48 41 53
41 4 -1 18 19 31 42 23 46 42 170 26 180 -5 2 -9 -25 -10 -62 -1 -43 -7 -77
-18 -96 -10 -17 -14 -21 -10 -10 4 11 11 42 17 68 26 127 -65 276 -193 315
-99 29 -216 20 -284 -23 l-41 -26 30 25 c17 14 48 32 70 40 22 8 33 15 25 15
-8 0 -31 -7 -50 -15z m119 -108 c15 -8 34 -23 42 -32 9 -11 9 -15 2 -10 -17
10 -16 1 2 -34 17 -33 28 -40 18 -12 -3 9 -3 14 2 10 11 -10 34 -129 28 -147
-3 -9 -8 -25 -13 -36 -4 -11 -14 -35 -20 -53 -17 -45 -80 -96 -143 -116 -48
-15 -57 -15 -88 -2 -24 11 -28 15 -14 16 16 0 21 8 23 39 1 22 -2 42 -8 46 -5
3 -10 18 -10 32 0 22 4 25 26 20 14 -2 22 -1 17 3 -4 5 -19 10 -33 13 -14 2
-5 4 20 3 33 -1 45 3 48 15 3 16 -53 94 -68 94 -5 0 -12 4 -17 8 -4 5 -2 7 6
5 8 -2 15 8 18 26 2 16 9 39 14 50 8 17 6 16 -11 -4 l-21 -25 16 33 c30 62
105 88 164 58z"/>
<path d="M2907 1741 c2 -35 2 -36 -6 -6 l-9 30 -1 -28 c-1 -20 5 -30 23 -37
13 -5 27 -17 30 -27 22 -72 26 -343 4 -343 -5 0 -6 4 -3 10 3 6 -1 7 -10 3
-11 -4 -13 -8 -6 -13 8 -4 5 -13 -9 -25 -23 -21 -18 -35 13 -36 17 0 18 -2 6
-7 -24 -10 -20 -108 4 -104 21 4 22 -5 2 -24 -10 -10 -12 -21 -6 -31 4 -9 6
-24 4 -33 -3 -10 0 -21 6 -24 6 -4 11 -12 11 -17 0 -6 -6 -7 -12 -3 -10 6 -10
4 0 -8 10 -13 10 -17 -3 -22 -20 -7 -31 -4 -27 9 2 5 -6 1 -17 -9 -22 -20 -28
-31 -10 -21 6 4 9 0 7 -11 -2 -13 5 -20 24 -24 15 -3 36 -12 47 -22 14 -12 22
-13 30 -5 8 8 16 6 29 -8 16 -18 16 -18 0 -6 -15 12 -21 10 -38 -10 -16 -20
-19 -21 -20 -6 0 9 -7 17 -15 17 -9 0 -12 6 -9 15 9 23 -13 18 -30 -7 -9 -12
-16 -17 -16 -10 0 7 -5 10 -11 6 -16 -10 10 -24 44 -24 16 0 26 -4 22 -10 -3
-5 -12 -7 -19 -4 -8 3 -17 1 -20 -4 -3 -5 6 -8 21 -6 l26 3 -7 -72 c-4 -40 -7
-78 -8 -84 -1 -7 -7 -13 -14 -13 -7 0 -16 -4 -19 -10 -4 -6 1 -7 11 -3 12 4
15 3 10 -5 -4 -7 -13 -12 -20 -12 -8 0 -11 -10 -8 -31 3 -22 7 -27 13 -18 5 8
9 10 9 4 0 -13 24 27 51 88 25 54 47 60 78 21 37 -47 27 -70 -41 -95 -55 -19
-57 -38 -4 -36 24 1 42 5 39 10 -2 4 3 7 11 7 21 0 86 59 98 89 6 14 17 49 24
76 11 43 12 46 13 18 1 -17 -4 -44 -10 -60 -8 -21 -7 -25 1 -17 6 6 14 30 17
53 4 29 11 41 22 41 9 1 3 7 -14 15 -30 14 -30 14 -2 9 22 -5 27 -2 28 12 0
18 1 17 9 -1 6 -13 9 -15 9 -5 1 17 -35 80 -45 80 -4 0 0 -7 7 -17 13 -15 12
-15 -9 -2 -12 8 -18 15 -12 17 5 2 10 10 10 18 0 10 -5 12 -12 8 -8 -5 -8 -1
1 10 13 15 13 19 0 27 -11 7 -11 9 4 9 9 0 17 7 17 15 0 25 -4 30 -20 26 -8
-1 -13 -1 -10 1 3 2 16 12 30 23 23 19 24 19 10 1 -13 -17 -13 -19 0 -14 8 2
17 15 18 28 3 17 0 21 -12 17 -25 -10 -27 9 -3 35 12 13 27 37 32 53 10 28 8
32 -23 58 -19 15 -31 27 -27 27 5 0 20 -10 34 -22 l26 -23 -23 26 c-22 26 -23
28 -8 64 19 45 19 48 4 40 -7 -4 4 9 25 28 29 27 34 36 22 41 -15 5 -22 36 -7
36 13 0 28 -15 35 -32 3 -10 15 -18 25 -18 10 0 27 -10 38 -22 10 -12 13 -18
7 -14 -7 4 -13 2 -13 -3 0 -6 6 -11 14 -11 21 0 26 -56 26 -333 0 -206 3 -265
15 -294 18 -43 18 -46 3 -37 -7 4 -8 3 -4 -5 4 -6 11 -9 16 -6 5 3 14 -5 21
-17 12 -22 11 -22 -6 -8 -18 14 -18 13 0 -11 11 -15 23 -25 28 -22 4 2 5 8 2
12 -2 5 14 -1 36 -12 22 -10 69 -22 104 -25 l65 -5 1 34 c1 35 3 33 13 -14 4
-15 10 -27 15 -27 17 0 -17 74 -38 82 -11 4 -21 13 -21 20 0 8 -3 9 -8 3 -4
-5 -26 -11 -48 -13 -53 -4 -135 35 -152 73 -23 51 -8 91 25 64 16 -14 71 -37
111 -46 12 -3 22 -10 22 -15 0 -5 7 -3 15 6 13 13 15 55 13 292 -1 263 -3 280
-23 320 -12 24 -18 41 -13 38 4 -3 16 -21 26 -41 l19 -35 0 31 c0 20 -3 27 -9
19 -6 -10 -8 -10 -8 0 0 22 -80 101 -100 99 -19 -1 -19 -2 0 -22 11 -12 17
-24 14 -28 -9 -9 23 -92 42 -107 18 -16 18 -43 -1 -79 -8 -16 -17 -44 -20 -62
-7 -41 -28 -59 -72 -59 -43 0 -53 21 -53 117 -1 43 -8 105 -16 138 -28 108
-28 105 -10 105 9 0 16 4 16 9 0 5 -9 7 -20 4 -11 -3 -20 -1 -20 5 0 6 -16 10
-35 9 -39 -2 -42 -18 -4 -27 16 -4 25 -14 27 -32 6 -49 -36 -41 -72 15 -10 15
-23 27 -28 27 -6 0 -30 -19 -53 -43 l-43 -42 -1 93 c-1 51 -6 105 -12 119 -5
15 -7 33 -5 40 3 8 2 12 -2 9 -4 -3 -14 4 -21 16 -9 15 -9 18 0 13 7 -5 10 -3
7 6 -3 8 -10 13 -16 12 -6 -2 -9 6 -7 16 2 10 -3 18 -11 18 -8 0 -13 -6 -10
-12 2 -7 -8 -6 -29 4 -18 9 -31 18 -30 21 2 3 -16 3 -39 2 -24 -2 -58 0 -77 6
l-35 9 3 -36z"/>
<path d="M4349 1723 c-13 -17 -13 -17 6 -3 20 14 20 14 1 -7 -10 -13 -22 -20
-27 -17 -4 2 -13 -4 -18 -15 -16 -29 -13 -38 4 -15 13 17 13 15 1 -17 -21 -50
-29 -128 -17 -164 5 -16 10 -24 10 -17 1 18 41 -4 41 -23 0 -22 -22 -30 -35
-12 -8 11 -15 13 -22 6 -11 -11 -17 -6 -38 36 -6 11 -24 26 -40 35 -17 8 -32
17 -35 20 -9 10 -100 4 -111 -7 -7 -7 6 -9 39 -5 55 5 113 -10 134 -35 12 -15
11 -15 -12 0 -64 40 -159 33 -245 -18 -33 -20 -52 -28 -44 -18 13 16 12 17 -4
4 -9 -8 -15 -16 -13 -19 5 -4 -53 -92 -60 -92 -2 0 -1 8 2 18 5 14 3 14 -11
-3 -9 -11 -14 -28 -11 -38 2 -9 1 -15 -2 -13 -4 2 -13 -2 -20 -10 -7 -8 -10
-14 -8 -14 3 0 2 -10 -3 -22 -14 -40 -22 -84 -12 -69 5 8 7 -29 5 -100 -2 -63
-1 -108 2 -101 3 6 10 10 15 6 5 -3 9 0 9 5 0 6 8 11 18 11 28 0 70 56 77 103
13 86 17 97 51 127 37 32 53 37 71 19 8 -8 16 -4 28 17 9 16 14 21 11 11 -3
-10 -2 -16 3 -12 5 3 11 0 13 -6 2 -7 4 5 5 25 1 24 -3 34 -10 29 -6 -4 -1 8
12 25 12 18 31 37 41 42 28 15 86 12 100 -5 7 -8 9 -15 4 -15 -4 0 1 -7 12
-15 16 -12 17 -16 4 -24 -8 -5 -18 -7 -22 -5 -5 3 -8 2 -7 -3 3 -20 -2 -27
-11 -13 -8 12 -9 9 -7 -10 3 -17 11 -26 26 -28 l21 -3 -20 -29 c-24 -34 -26
-63 -3 -81 9 -8 14 -9 10 -2 -5 7 0 9 13 6 24 -6 17 -23 -10 -23 -16 0 -19 -7
-17 -39 1 -33 3 -37 13 -23 10 14 11 12 7 -11 -3 -16 -10 -24 -17 -20 -7 4 -7
1 1 -8 10 -13 7 -19 -17 -38 -27 -19 -44 -51 -20 -36 5 3 7 0 4 -9 -4 -11 3
-15 26 -18 30 -3 30 -3 9 -16 -11 -8 -18 -9 -14 -3 3 6 1 11 -4 11 -12 0 -14
-11 -5 -34 4 -10 19 -16 38 -17 21 -1 24 -3 11 -6 -11 -3 -24 -9 -30 -15 -6
-6 -4 -7 8 -3 14 6 17 1 18 -21 l1 -29 8 30 8 30 0 -30 c0 -16 -4 -41 -8 -55
-7 -21 -8 -22 -10 -5 l-1 20 -9 -20 c-12 -29 -12 -37 3 -29 7 4 9 3 4 -2 -5
-5 -14 -9 -19 -9 -6 0 -13 -6 -16 -14 -3 -9 0 -11 9 -7 8 4 1 -4 -14 -18 -34
-32 -86 -35 -111 -7 -10 11 -15 25 -10 32 4 7 3 10 -4 5 -5 -3 -13 0 -16 6 -3
7 -3 2 0 -11 4 -15 2 -21 -4 -17 -14 9 -32 -25 -32 -60 0 -25 -2 -26 -37 -21
-43 7 -83 46 -83 80 0 21 -19 82 -31 102 -4 6 -10 38 -14 71 l-7 61 -26 -26
-27 -26 -3 23 c-2 12 -8 22 -13 22 -5 0 -9 -2 -9 -4 0 -8 28 -140 34 -161 4
-11 0 -6 -8 10 -25 49 -18 10 8 -47 23 -52 81 -119 121 -140 11 -6 -1 9 -26
33 -25 24 -31 32 -15 18 73 -63 153 -81 243 -53 32 10 63 19 68 20 22 3 45 17
45 27 0 5 -10 2 -22 -9 -13 -10 -3 4 21 31 25 28 46 52 48 55 2 2 1 -4 -3 -14
-5 -13 -4 -17 4 -12 7 4 10 2 7 -6 -3 -8 7 -25 22 -38 l28 -25 -25 30 -25 30
25 -21 c44 -38 90 -55 160 -61 47 -4 67 -9 63 -17 -4 -6 1 -5 10 3 9 7 17 21
16 30 0 12 -2 11 -9 -4 l-9 -20 -2 20 c-1 11 -2 28 -1 38 1 9 -5 17 -13 17
-21 0 -32 33 -37 111 -3 61 -2 66 16 61 16 -4 18 -1 14 21 -3 15 -1 24 3 21 5
-3 9 -14 9 -25 0 -11 4 -17 10 -14 6 4 4 17 -5 36 -9 16 -20 27 -25 24 -5 -3
-12 -1 -15 5 -4 6 -1 9 6 8 12 -3 13 12 10 94 -1 31 -4 36 -18 31 -10 -3 -15
-3 -11 1 3 4 14 9 25 10 12 2 17 11 16 27 -1 13 1 31 4 39 4 8 5 19 4 23 -1 5
3 6 8 3 12 -8 16 0 24 39 l6 30 -14 -30 -14 -30 2 36 c1 21 5 35 10 32 18 -11
4 18 -17 34 -22 18 -24 25 -25 143 -1 68 -4 126 -6 129 -3 2 -5 -53 -5 -122 0
-70 -3 -127 -7 -127 -5 0 -8 73 -7 163 1 161 1 162 -25 184 -14 12 -47 28 -74
35 -43 11 -48 15 -44 35 2 13 -1 30 -7 39 -11 14 -13 14 -27 -3z"/>
<path d="M4900 1510 c-65 -23 -63 -23 -55 -10 3 6 -1 7 -10 3 -12 -4 -13 -8
-4 -13 8 -6 6 -11 -8 -19 -11 -5 -24 -7 -28 -3 -5 4 -5 2 -2 -4 4 -6 -6 -22
-21 -35 -20 -18 -23 -19 -12 -4 14 18 14 19 -2 7 -9 -7 -17 -21 -17 -30 0 -9
-4 -35 -10 -57 -35 -133 79 -239 169 -157 40 36 49 83 21 109 -14 13 -31 18
-45 16 -22 -5 -41 10 -41 32 0 6 -10 11 -23 13 l-22 3 20 29 c11 15 20 33 20
38 0 6 15 21 33 33 17 13 34 26 37 30 3 3 16 2 30 -3 l25 -10 -22 -9 c-36 -13
-27 -19 20 -13 57 8 121 -11 160 -47 18 -17 26 -27 18 -23 -11 5 -13 3 -8 -10
5 -12 -2 -28 -18 -48 -14 -16 -25 -37 -24 -46 0 -12 3 -11 9 6 11 27 20 29 13
3 -4 -17 0 -19 39 -15 30 3 37 2 23 -4 -11 -5 -26 -7 -34 -4 -10 4 -12 1 -6
-8 5 -8 4 -11 -3 -6 -13 8 -36 -30 -28 -47 2 -7 5 -5 5 5 1 9 5 19 10 22 5 4
7 -3 4 -14 -5 -18 -2 -19 28 -15 19 3 27 2 19 -2 -8 -5 -14 -19 -14 -33 2 -43
6 -46 14 -10 l8 35 -1 -41 -1 -42 -26 20 c-43 31 -98 46 -159 41 -77 -6 -119
-20 -163 -54 -20 -16 -44 -29 -52 -29 -8 0 -18 -5 -22 -12 -5 -8 -2 -9 9 -5
16 6 16 5 1 -18 -9 -14 -24 -25 -33 -26 -9 0 -11 -3 -4 -5 9 -4 8 -16 -3 -47
-8 -23 -17 -71 -19 -107 -3 -36 -8 -64 -13 -63 -5 1 -9 -5 -9 -12 0 -10 4 -12
12 -5 9 8 14 -1 20 -32 4 -24 7 -46 6 -50 0 -5 5 -8 12 -8 9 0 9 -2 -1 -9 -10
-6 -9 -11 4 -22 16 -12 17 -12 9 1 -5 9 0 8 13 -4 26 -22 28 -30 6 -22 -9 3
-12 2 -9 -5 4 -5 12 -8 18 -6 6 2 27 -7 46 -20 18 -13 40 -23 47 -23 8 0 11
-7 8 -17 -4 -11 -3 -14 3 -7 4 6 41 10 83 10 60 0 85 4 125 24 28 13 55 24 62
25 6 0 22 10 35 23 20 18 27 19 38 9 10 -10 11 -9 5 3 -6 10 -1 8 13 -4 12
-10 20 -22 17 -25 -2 -4 1 -13 7 -21 8 -12 9 -12 4 3 -7 21 -3 21 35 1 17 -8
61 -18 98 -21 l68 -6 5 37 c3 31 1 36 -17 36 -16 0 -17 2 -5 10 12 8 12 10 -5
10 -17 0 -17 2 -5 10 13 8 12 10 -2 10 -11 0 -19 8 -19 20 -1 11 -2 28 -3 38
0 12 5 16 22 14 17 -3 22 2 23 20 1 23 1 23 9 -2 7 -21 8 -21 9 -5 1 22 -14
50 -26 50 -14 1 -49 24 -36 25 6 0 15 -5 19 -11 4 -8 10 -6 17 6 6 11 6 20 0
24 -14 9 -38 55 -24 47 7 -5 11 2 11 18 0 14 -6 26 -12 26 -9 0 -8 3 2 9 8 6
17 8 21 5 15 -9 17 25 3 43 -14 16 -14 16 -3 -7 7 -15 7 -21 1 -15 -17 16 -18
39 -3 40 8 0 16 6 19 14 3 9 0 11 -9 6 -9 -5 -8 -1 3 11 9 10 18 33 21 49 l4
30 2 -30 c0 -17 -4 -36 -10 -42 -7 -7 -6 -12 4 -16 11 -4 14 7 16 49 1 40 -2
54 -11 52 -7 -1 -26 5 -43 15 -33 18 -26 23 8 6 l22 -12 -20 20 c-11 11 -23
19 -27 16 -5 -2 -8 12 -8 32 0 22 4 34 10 30 6 -3 10 0 10 8 0 8 7 20 15 27 8
7 15 20 15 29 0 18 -39 61 -54 61 -5 0 3 -9 18 -21 14 -11 26 -28 26 -37 0
-12 -4 -10 -13 7 -6 13 -27 32 -46 42 -19 10 -42 26 -50 36 -15 16 -15 16 4 2
32 -25 55 -31 55 -13 0 8 -4 13 -8 10 -5 -3 -20 1 -35 9 -15 8 -27 12 -27 9 0
-3 -10 0 -21 7 -17 9 -19 13 -8 20 10 6 7 8 -9 6 -17 -1 -22 -7 -22 -30 l0
-29 -51 43 c-32 26 -46 45 -39 49 17 10 -53 20 -145 20 -53 -1 -99 -7 -135
-20z m236 -463 c16 -16 20 -27 14 -42 -8 -18 -9 -17 -9 7 -1 26 -35 57 -49 44
-3 -3 0 -6 6 -6 18 0 35 -39 23 -54 -7 -9 -4 -12 11 -13 12 -1 25 -7 30 -12 4
-6 5 -9 2 -7 -9 7 -84 -65 -84 -80 0 -9 13 -12 44 -9 l43 3 -26 -27 c-27 -28
-43 -33 -21 -6 8 9 8 15 2 15 -6 0 -14 -10 -18 -22 -5 -16 -1 -27 16 -40 12
-10 25 -16 29 -13 4 2 8 -2 8 -10 0 -8 -5 -13 -10 -12 -5 1 -12 -4 -15 -12 -3
-9 0 -11 8 -6 23 14 -8 -32 -36 -54 -33 -26 -85 -27 -112 -3 -32 27 -59 88
-58 129 5 111 8 129 15 103 7 -23 9 -21 17 20 8 36 14 44 30 42 15 -2 16 -1 5
7 -12 8 -12 14 4 38 l18 28 -29 -25 -29 -25 25 29 c14 15 34 32 45 37 30 13
77 2 101 -24z m-260 -11 c8 -20 -20 -108 -51 -161 -20 -34 -28 -63 -31 -112
-3 -37 -7 -69 -9 -71 -8 -8 -45 30 -45 45 0 8 -3 12 -7 10 -5 -3 -8 23 -8 56
0 43 6 70 19 89 13 20 16 38 12 60 -7 40 -1 50 44 76 42 24 69 27 76 8z"/>
<path d="M2005 1490 c-80 -22 -81 -22 -65 -10 13 10 13 11 0 7 -8 -2 -15 -9
-15 -16 0 -15 -26 -31 -39 -24 -5 3 -6 1 -3 -4 4 -6 -3 -19 -15 -29 -14 -13
-19 -14 -14 -4 4 8 -4 2 -18 -13 -26 -28 -35 -54 -15 -41 6 3 3 -8 -5 -25 -19
-36 -26 -39 -26 -10 0 12 4 18 11 13 7 -4 10 -1 7 7 -3 8 -10 14 -15 14 -6 0
-15 4 -20 9 -4 5 -3 6 3 3 7 -4 15 0 18 9 5 13 2 15 -13 11 -12 -3 -26 2 -33
11 -7 8 -26 23 -43 34 -16 10 -25 18 -18 18 7 0 29 -14 50 -32 l38 -32 -34 36
c-30 33 -80 60 -65 36 4 -7 -6 -8 -27 -4 l-34 6 30 -14 c17 -8 26 -15 21 -15
-5 -1 -3 -8 4 -16 18 -22 6 -41 -31 -49 -27 -5 -38 -2 -61 21 -15 15 -28 33
-28 40 0 7 -6 10 -15 7 -8 -4 -15 -13 -15 -21 0 -8 -5 -11 -12 -7 -8 4 -9 3
-5 -2 5 -5 16 -9 25 -9 13 0 16 -7 14 -30 -2 -20 0 -26 6 -17 13 19 22 -16 14
-54 -5 -25 -6 -26 -13 -9 -7 19 -8 20 -8 1 -1 -11 -11 -31 -23 -44 -13 -14
-16 -22 -8 -18 9 4 8 2 -3 -7 -14 -12 -15 -16 -3 -26 7 -6 22 -8 32 -4 17 6
17 5 5 -10 -7 -9 -17 -15 -21 -12 -17 10 -21 -30 -4 -42 9 -7 14 -19 11 -27
-4 -9 -3 -15 1 -15 22 4 42 -2 42 -12 0 -6 -6 -9 -13 -6 -10 4 -14 -8 -14 -46
-1 -40 3 -54 20 -68 l22 -18 -35 -13 c-19 -7 -39 -11 -43 -10 -5 1 -6 -2 -3
-7 4 -5 2 -12 -4 -16 -19 -12 -10 -24 23 -27 l32 -3 -24 -13 c-17 -11 -21 -11
-16 -1 5 7 4 10 -3 5 -13 -8 -11 -46 3 -47 5 -1 17 -1 27 0 24 3 31 -15 23
-57 -6 -31 -9 -34 -15 -17 -7 17 -9 17 -9 3 -1 -28 0 -33 10 -30 6 1 5 -7 -1
-18 -6 -11 -19 -20 -30 -20 -24 0 -29 -9 -19 -40 7 -25 7 -24 9 5 l2 30 7 -30
c7 -30 7 -30 69 -28 40 1 78 9 104 22 23 11 45 18 50 15 4 -3 5 2 2 10 -3 9
-2 16 4 16 5 0 13 8 16 17 6 15 5 15 -11 2 -16 -13 -31 -15 -70 -10 -17 2 -16
26 2 61 13 25 21 30 53 30 42 -1 71 -18 64 -40 -4 -12 -2 -12 8 -3 11 10 11
15 0 28 -12 14 -10 14 14 5 37 -14 44 9 17 56 -18 30 -21 46 -16 92 3 31 9 60
12 66 4 6 6 24 5 40 -2 26 -1 28 15 15 15 -12 16 -12 10 5 -4 10 -3 24 1 30
20 25 22 64 4 83 -9 10 -13 12 -7 3 6 -10 2 -8 -13 4 -12 11 -22 21 -22 24 0
3 3 2 7 -1 9 -10 32 25 26 40 -3 7 -10 10 -17 7 -6 -3 -3 1 7 9 18 15 24 32 7
22 -6 -3 -7 1 -4 9 3 9 11 13 16 10 6 -4 8 1 4 13 -8 25 41 94 83 119 17 10
31 22 31 26 0 4 7 8 15 8 8 0 15 7 15 15 0 9 9 15 23 15 16 0 26 -9 35 -32 7
-18 22 -52 33 -76 11 -24 17 -48 13 -53 -8 -13 -69 -5 -91 12 -16 12 -17 12
-6 -2 7 -9 9 -19 5 -23 -4 -4 0 -6 8 -4 8 2 14 -2 15 -9 0 -6 4 -15 9 -20 5
-4 7 -4 4 2 -4 6 16 10 52 10 38 1 56 -3 52 -10 -3 -5 2 -4 11 4 10 8 15 16
13 19 -3 2 4 16 14 30 31 39 26 94 -11 136 -44 50 -116 67 -194 46z"/>
<path d="M5569 1439 l-1 -34 -8 30 c-7 28 -8 28 -9 5 -1 -26 30 -82 45 -81 5
1 10 -11 12 -26 5 -40 16 -47 31 -19 8 13 24 27 37 30 36 9 57 47 45 80 -6 14
-16 27 -23 28 -7 0 -24 2 -38 4 -14 1 -40 5 -57 9 -32 7 -33 6 -34 -26z"/>
<path d="M6240 1459 c-25 -5 -57 -7 -72 -3 -14 3 -29 1 -32 -4 -3 -6 4 -8 16
-5 22 4 22 3 -2 -11 -18 -10 -27 -11 -32 -3 -5 8 -8 5 -8 -7 0 -16 -2 -17 -17
-5 -10 8 -14 9 -10 2 4 -6 3 -14 -3 -18 -15 -9 -12 -28 3 -19 7 4 9 3 4 -2 -5
-5 -14 -9 -20 -9 -7 0 -22 -28 -33 -62 -12 -35 -19 -63 -16 -63 3 0 -9 -14
-26 -31 -18 -17 -32 -36 -32 -41 0 -5 12 4 26 21 14 17 33 31 42 31 11 0 4 -8
-16 -20 -21 -13 -35 -31 -39 -50 -3 -17 -10 -30 -15 -30 -6 0 -7 8 -3 18 5 13
4 14 -6 5 -10 -10 -9 -15 1 -27 7 -9 15 -14 19 -12 4 3 13 0 21 -6 12 -8 11
-9 -3 -4 -14 4 -17 2 -15 -12 2 -9 10 -16 17 -14 7 1 10 -2 6 -8 -4 -6 -1 -18
7 -27 8 -10 8 -14 1 -10 -7 5 -14 -2 -18 -15 -4 -13 -15 -32 -25 -43 -19 -22
-24 -75 -7 -72 6 1 16 -8 21 -20 8 -16 16 -21 30 -17 12 4 16 2 12 -5 -4 -6
-16 -11 -27 -11 -16 0 -18 -5 -13 -37 3 -21 8 -41 11 -45 2 -5 -1 -8 -8 -8 -7
0 -9 -3 -6 -6 4 -4 12 -2 20 4 9 8 17 8 27 0 13 -8 13 -9 -1 -5 -10 3 -19 -5
-27 -23 -17 -39 -40 -45 -74 -20 -21 16 -26 17 -21 4 9 -23 48 -35 81 -24 25
9 26 9 8 -5 -11 -8 -27 -15 -36 -15 -24 0 -60 29 -71 57 -5 13 -13 22 -18 18
-5 -3 -12 3 -16 14 -3 12 -13 18 -23 17 -9 -2 -44 -7 -78 -11 l-61 -7 -28 55
-27 55 15 93 c19 107 38 134 101 144 67 11 75 15 92 51 15 32 17 129 2 174 -3
8 -3 12 -1 8 3 -5 9 -8 15 -8 6 0 6 6 -2 15 -26 32 -81 13 -106 -38 -9 -18
-30 -47 -47 -64 -29 -31 -31 -32 -47 -15 -9 10 -20 24 -23 32 -3 8 -5 -100 -4
-242 1 -141 -1 -254 -5 -251 -5 2 -9 14 -9 26 -1 19 -2 19 -6 3 -3 -12 5 -28
22 -44 18 -16 23 -27 16 -32 -13 -7 19 -54 54 -80 19 -14 24 -16 46 -19 5 0 8
-5 5 -10 -3 -5 0 -8 7 -8 6 1 38 -7 70 -17 40 -12 74 -16 105 -12 36 4 42 3
24 -4 -13 -6 -20 -15 -16 -21 4 -8 9 -7 15 2 6 10 9 11 9 2 0 -8 13 -13 31
-13 l32 0 -27 -21 c-35 -27 -34 -50 2 -45 15 2 20 1 12 -1 -8 -3 -19 -10 -25
-15 -7 -8 -6 -9 3 -4 19 11 15 -30 -11 -106 -18 -52 -20 -65 -8 -55 8 7 5 -2
-7 -19 -28 -41 -78 -64 -139 -64 l-48 1 23 19 c13 11 21 25 17 32 -4 7 0 5 8
-4 8 -10 17 -15 20 -12 3 4 0 13 -8 21 -19 19 -19 34 0 27 8 -4 15 -2 15 4 0
6 -6 12 -12 15 -10 3 -10 7 1 20 11 15 11 17 -2 17 -19 0 -28 23 -15 41 7 11
8 9 3 -6 -5 -16 -4 -18 6 -7 11 10 10 16 -5 30 -11 9 -15 11 -11 3 6 -11 2
-12 -21 -5 -16 4 -46 8 -66 8 -23 0 -34 4 -30 11 3 5 -2 4 -11 -4 -20 -16 -23
-26 -5 -15 7 5 3 -5 -10 -20 -15 -20 -22 -42 -22 -73 0 -27 -4 -42 -10 -38 -5
3 -10 1 -10 -4 0 -6 8 -11 17 -11 9 0 14 -3 11 -6 -4 -3 11 -21 32 -41 53 -47
125 -73 203 -72 70 1 154 19 149 33 -2 5 2 13 10 17 9 6 9 9 1 9 -7 0 -16 -8
-21 -17 -8 -13 -24 -17 -65 -17 -66 -1 -81 10 -47 33 14 9 44 33 67 55 42 37
44 38 68 22 13 -9 33 -16 45 -16 28 0 25 -15 -7 -39 -16 -11 -25 -21 -20 -21
4 0 28 19 52 42 25 22 43 34 39 25 -3 -9 10 -2 29 16 34 30 58 73 56 100 0 7
-8 -7 -17 -30 -24 -58 -36 -67 -15 -10 17 46 11 78 -8 44 -10 -17 -69 -53 -69
-41 0 4 -7 1 -15 -6 -34 -28 -84 30 -55 64 12 15 53 18 44 4 -3 -5 -10 -6 -15
-3 -5 4 -9 -1 -9 -9 0 -26 20 -18 38 14 9 17 25 33 35 36 9 3 17 10 17 15 0 5
7 9 15 9 8 0 15 5 15 10 0 6 7 10 15 10 8 0 15 5 15 10 0 6 -11 10 -25 10 -14
0 -25 4 -25 10 0 5 7 7 16 3 10 -4 22 0 28 8 6 9 19 18 28 22 11 4 15 12 11
22 -5 13 -7 14 -14 3 -7 -10 -9 -9 -9 5 0 12 -8 17 -28 17 -15 0 -33 5 -40 12
-9 9 -12 7 -12 -9 0 -12 5 -25 10 -28 6 -3 10 -1 10 6 0 7 3 10 6 6 3 -3 3
-11 -1 -17 -12 -19 -35 10 -33 41 2 31 12 38 22 14 3 -8 10 -15 16 -15 8 0 8
6 0 20 -17 32 14 26 39 -8 21 -27 21 -27 27 -4 3 12 13 22 20 22 17 0 19 31 3
47 -8 8 -7 13 2 18 8 5 10 4 5 -3 -11 -18 0 -14 15 5 10 11 10 14 2 9 -19 -11
-16 5 4 19 9 7 17 27 17 48 1 34 15 42 17 9 0 -10 3 -12 5 -5 8 17 -13 51 -39
63 -21 11 -21 11 -3 -4 24 -19 16 -20 -19 -4 -24 11 -26 16 -20 47 4 20 12 42
18 50 9 12 9 13 0 7 -9 -5 -13 2 -13 23 0 25 4 31 21 31 11 0 18 -4 15 -9 -4
-5 4 -7 16 -3 21 5 21 6 2 13 -39 16 -64 10 -64 -13 0 -40 -17 -54 -22 -19 -6
43 1 50 54 46 39 -2 47 0 52 17 5 22 -48 98 -68 98 -7 0 -7 3 -1 8 15 11 17
32 3 29 -9 -1 -13 17 -14 63 -1 36 -5 73 -9 84 -5 11 -3 21 4 25 6 4 9 15 5
25 -7 18 15 19 29 1 4 -6 7 -1 5 10 -2 14 3 21 20 23 19 3 22 9 20 40 l-1 37
-5 -35 -5 -35 -6 30 c-7 34 -22 38 -91 24z"/>
<path d="M1091 1444 c9 -11 8 -14 -5 -14 -9 0 -16 5 -16 11 0 5 -4 8 -9 5 -13
-9 -8 -32 14 -56 10 -11 15 -20 10 -20 -4 0 -3 -6 3 -13 10 -12 9 -51 -3 -84
-2 -7 1 -13 8 -13 7 0 1 -6 -13 -13 -27 -15 -44 -12 -20 3 9 6 10 10 3 10 -13
0 -53 -47 -53 -63 0 -6 7 -2 15 9 14 17 15 18 9 0 -4 -10 -1 -21 6 -26 17 -10
20 -72 3 -66 -7 3 -10 -1 -7 -9 3 -8 11 -13 16 -12 15 3 21 -50 7 -59 -8 -5
-9 -3 -4 6 6 9 4 11 -5 5 -10 -6 -9 -11 6 -22 12 -8 18 -23 16 -38 -2 -14 4
-28 15 -35 16 -10 16 -11 1 -6 -20 6 -25 -10 -5 -17 6 -2 -1 -3 -18 -1 -22 3
-26 1 -15 -5 12 -8 9 -12 -12 -20 -14 -5 -30 -16 -34 -23 -6 -11 -5 -11 8 0
14 11 16 11 11 -6 -4 -16 0 -18 29 -15 24 3 29 2 18 -6 -8 -5 -17 -8 -20 -6
-4 2 -7 -1 -7 -8 0 -7 -4 -20 -8 -30 -6 -15 -4 -18 16 -17 49 4 59 0 58 -22 0
-22 -1 -22 -9 -3 -9 22 -11 20 -15 -11 -2 -16 2 -20 16 -17 11 3 19 0 19 -6 0
-7 -4 -10 -9 -7 -5 4 -4 -7 2 -24 6 -16 15 -30 20 -30 4 0 5 5 1 12 -4 7 -3 8
4 4 6 -4 9 -13 6 -20 -3 -8 0 -17 7 -22 8 -5 10 -3 4 6 -5 8 6 4 24 -9 41 -30
112 -51 168 -51 42 0 43 1 43 33 0 22 3 28 9 18 5 -8 11 -9 15 -3 3 6 -8 15
-24 21 -31 10 -54 50 -47 80 2 9 7 -1 11 -21 5 -21 13 -38 18 -38 6 0 7 7 3
18 -5 9 -9 33 -9 53 -1 20 -8 44 -15 53 -7 9 -11 16 -7 16 3 0 15 -15 27 -32
l20 -33 -7 30 c-4 17 -11 31 -16 33 -13 6 -10 120 5 125 9 4 9 6 0 6 -9 1 -10
8 -3 25 9 24 -8 53 -23 41 -4 -3 -4 -2 -1 2 3 5 10 8 16 8 17 0 49 48 54 81 3
22 -1 32 -17 42 -12 8 -18 9 -15 3 4 -5 -6 -3 -21 4 -26 13 -28 18 -25 64 2
28 8 49 12 46 10 -6 -7 70 -21 97 -5 10 -14 16 -19 13 -5 -3 -12 0 -16 6 -4 7
-3 9 4 5 6 -4 10 1 9 13 -1 12 -5 17 -12 12 -5 -4 -27 2 -49 14 -21 13 -33 24
-27 26 6 2 -23 5 -64 5 -64 2 -74 0 -64 -12z"/>
</g>
</svg>
