<?xml version="1.0" standalone="no"?>
<!DOCTYPE svg PUBLIC "-//W3C//DTD SVG 20010904//EN"
 "http://www.w3.org/TR/2001/REC-SVG-20010904/DTD/svg10.dtd">
<svg version="1.0" xmlns="http://www.w3.org/2000/svg"
 width="1196.000000pt" height="763.000000pt" viewBox="0 0 1196.000000 763.000000"
 preserveAspectRatio="xMidYMid meet">
<metadata>
Created by potrace 1.16, written by Peter Selinger 2001-2019
</metadata>
<g transform="translate(0.000000,763.000000) scale(0.100000,-0.100000)"
fill="#000000" stroke="none">
<path d="M0 3815 l0 -3815 1430 0 1430 0 0 703 c1 588 3 698 14 677 16 -30 29
-143 17 -156 -4 -5 -2 -20 6 -34 12 -23 13 -18 12 52 -1 57 2 84 15 102 18 28
20 36 8 36 -5 0 -14 -10 -20 -22 l-11 -23 0 25 c-1 14 -5 31 -10 39 -6 10 -3
19 11 31 25 20 16 40 -18 40 -22 0 -24 3 -24 55 0 41 4 57 18 65 16 10 16 10
0 20 -20 12 -24 40 -7 57 8 8 8 13 0 17 -7 5 -11 52 -11 130 l0 123 31 9 c41
12 42 28 2 32 l-33 3 0 129 c0 123 1 130 25 156 28 31 28 42 -2 69 -23 21 -23
22 -23 339 0 291 2 320 18 333 16 14 16 14 0 9 -16 -5 -18 2 -18 54 0 56 2 60
23 60 13 0 28 -5 33 -10 7 -7 21 -1 45 20 19 16 42 30 52 30 9 0 17 4 17 9 0
18 221 8 258 -11 22 -11 40 -14 55 -9 16 6 26 3 40 -12 9 -11 17 -15 17 -8 0
15 40 5 55 -13 6 -7 17 -15 25 -18 11 -3 7 -9 -15 -21 -16 -9 -26 -16 -22 -17
15 0 136 74 132 81 -6 9 24 69 35 69 5 0 12 -5 16 -11 6 -10 -7 -24 -29 -32
-4 -1 -9 -10 -10 -19 -5 -28 -96 -93 -199 -142 -37 -16 -58 -33 -59 -44 0 -9
-2 -28 -4 -42 -1 -14 2 -31 7 -37 8 -9 6 -13 -6 -13 -10 0 -15 4 -11 9 8 14
-35 25 -47 13 -8 -8 -6 -19 6 -36 19 -30 20 -37 4 -33 -8 1 -12 -6 -10 -17 2
-11 -1 -15 -7 -11 -6 3 -11 -1 -11 -9 0 -29 17 -16 96 72 43 48 98 107 121
131 24 24 40 47 37 52 -3 5 1 6 9 3 8 -3 37 20 73 57 131 139 231 236 275 267
26 19 69 55 97 81 64 60 97 63 97 8 1 -20 6 -42 13 -49 9 -9 12 -8 12 9 0 14
8 23 26 27 35 9 53 -8 36 -34 -8 -14 -9 -19 -1 -18 6 2 15 -8 20 -22 8 -22 7
-23 -4 -8 -8 10 -17 15 -21 11 -3 -3 1 -14 10 -24 10 -11 12 -19 4 -24 -5 -3
-7 -11 -4 -17 4 -6 2 -8 -4 -4 -6 3 -20 -7 -32 -23 -14 -20 -26 -28 -37 -24
-11 4 -14 3 -9 -5 4 -7 1 -12 -8 -12 -9 0 -16 -5 -16 -11 0 -5 -4 -8 -8 -5 -4
3 -25 -11 -46 -30 -35 -32 -37 -37 -32 -82 4 -41 11 -53 51 -90 l47 -42 -7
-58 c-14 -117 -30 -177 -48 -174 -10 2 -22 -10 -32 -32 -15 -32 -15 -37 0 -71
16 -33 16 -37 1 -54 -19 -21 -21 -58 -4 -63 9 -3 8 -11 -5 -31 -9 -14 -14 -34
-11 -44 4 -13 3 -14 -3 -5 -12 16 -34 -8 -56 -58 -8 -19 -33 -55 -56 -79 -35
-37 -41 -48 -36 -75 7 -40 -4 -56 -48 -66 -31 -7 -37 -5 -42 11 -4 10 -4 23 0
28 3 5 1 12 -5 16 -16 10 -12 51 10 89 27 45 26 169 -1 174 -10 2 -17 -3 -16
-10 0 -7 -1 -22 -2 -33 -1 -16 -3 -17 -11 -5 -5 8 -7 33 -4 55 6 47 -10 80
-26 55 -5 -8 -19 -46 -30 -85 -11 -38 -27 -89 -34 -112 -8 -27 -10 -47 -3 -58
6 -12 5 -20 -3 -25 -16 -10 -2 -33 15 -26 21 8 26 -6 9 -25 -11 -12 -12 -19
-4 -24 7 -4 16 -2 20 4 5 9 11 8 24 -4 18 -18 22 -60 6 -70 -13 -8 -13 -25 0
-25 5 0 19 17 30 38 12 20 19 29 16 20 -4 -14 0 -18 19 -18 37 0 31 -23 -20
-76 -25 -25 -45 -55 -45 -66 0 -11 -10 -34 -22 -51 -24 -33 -57 -120 -58 -149
0 -22 -43 -55 -83 -64 -18 -3 -35 -11 -39 -17 -8 -13 49 -57 73 -57 10 0 19
-9 22 -22 l4 -23 2 23 c1 28 41 32 41 3 0 -25 -28 -46 -56 -43 -13 2 -24 -1
-24 -5 0 -11 -64 -43 -86 -43 -8 0 -29 -7 -47 -16 l-32 -17 23 25 c12 13 22
28 22 32 0 5 11 21 25 38 14 16 25 33 25 38 0 14 -49 -38 -65 -70 -17 -33 -47
-51 -117 -70 -51 -13 -62 -22 -71 -58 -4 -19 -1 -24 24 -29 16 -3 26 -10 22
-16 -4 -6 0 -8 10 -4 9 3 18 0 21 -9 3 -8 11 -14 17 -14 7 0 -3 14 -20 31 -25
23 -30 34 -22 42 9 9 14 9 19 0 10 -16 101 -19 144 -4 21 7 41 10 45 8 5 -2
17 -1 28 3 16 6 31 -4 74 -47 29 -29 51 -59 48 -66 -2 -6 -1 -21 4 -32 6 -17
8 -15 9 10 1 17 4 25 6 19 3 -7 13 -10 22 -7 10 2 26 -5 37 -17 16 -18 17 -24
6 -42 -11 -17 -10 -22 0 -29 8 -4 10 -11 7 -15 -4 -3 -1 -19 7 -35 16 -31 20
-53 5 -29 -5 8 -12 12 -15 8 -4 -3 7 -33 24 -67 66 -131 106 -271 81 -286 -6
-3 -10 -15 -10 -25 0 -10 -9 -22 -20 -25 -11 -3 -20 -11 -20 -16 0 -5 -4 -9
-9 -9 -6 0 -9 10 -9 22 3 51 -2 79 -13 72 -6 -3 -15 0 -20 7 -6 10 -8 5 -5
-15 3 -15 -1 -47 -9 -70 -8 -22 -15 -49 -15 -59 0 -11 -5 -17 -12 -14 -8 2
-12 17 -10 36 1 17 -1 31 -5 31 -12 0 -53 -64 -53 -81 0 -10 -8 -15 -22 -14
-13 1 -28 -2 -35 -7 -7 -5 -17 -7 -22 -4 -5 4 -13 1 -17 -5 -15 -24 -19 13
-13 118 9 143 19 205 33 200 7 -2 10 -29 9 -77 -3 -64 -1 -71 12 -60 11 9 15
27 13 54 -2 23 2 42 7 44 17 4 17 -67 -1 -114 -12 -31 -14 -48 -7 -55 13 -13
43 26 43 54 0 10 10 27 22 37 21 16 22 21 11 52 -7 18 -15 53 -19 78 -3 25
-17 64 -31 88 -13 23 -19 42 -13 42 17 0 7 42 -13 54 -13 8 -20 8 -26 -2 -5
-9 -12 2 -21 33 -10 37 -17 46 -32 42 -12 -4 -18 0 -18 12 0 23 -26 58 -48 63
-17 5 -17 1 -9 -46 16 -89 13 -157 -11 -203 -28 -53 -28 -67 -1 -60 19 5 20 2
15 -21 -3 -15 -9 -38 -11 -52 -3 -14 -8 -34 -11 -45 -3 -13 1 -10 11 8 9 15
21 55 27 89 10 58 11 60 24 37 16 -28 18 -42 5 -35 -14 9 -40 -81 -27 -94 6
-6 6 -10 0 -10 -5 0 -10 -9 -11 -20 -3 -36 17 -10 23 31 13 78 20 18 9 -74
-11 -101 -37 -150 -82 -162 -13 -3 -21 -9 -19 -14 3 -5 -13 -11 -37 -14 -23
-3 -43 -2 -45 4 -4 11 -42 12 -42 1 0 -4 -14 -16 -31 -26 l-32 -19 8 39 c13
70 -6 28 -29 -65 -22 -90 -35 -122 -37 -85 0 10 -11 -4 -24 -33 -13 -29 -21
-61 -18 -73 3 -11 0 -27 -7 -35 -10 -12 -9 -22 4 -49 19 -40 19 -49 5 -99 -14
-51 -34 -42 -34 14 0 38 -3 44 -22 47 -29 4 -49 -31 -28 -48 21 -17 19 -30 -6
-30 -11 0 -29 -5 -40 -11 -20 -10 -20 -12 -3 -30 9 -10 17 -29 18 -41 1 -16
13 -29 44 -44 23 -12 51 -29 60 -38 25 -22 94 -21 114 2 8 9 18 31 21 47 15
81 47 115 47 49 0 -21 -4 -33 -10 -29 -6 4 -8 11 -5 16 4 5 1 9 -4 9 -14 0
-14 -36 1 -77 l12 -33 954 0 954 0 -7 42 c-4 24 -14 60 -23 81 -11 28 -13 61
-10 127 4 60 2 88 -5 87 -27 -5 -15 36 22 76 40 44 59 84 26 57 -18 -15 -19
-10 -4 27 6 15 13 54 15 87 3 32 10 68 16 80 12 21 27 162 32 316 6 175 41
452 65 520 5 14 15 45 22 70 7 25 19 58 27 73 18 37 11 43 -30 23 -32 -16 -34
-16 -52 6 -25 31 -18 94 24 218 36 107 36 134 -4 226 -14 34 -30 93 -35 130
l-8 69 -2 -65 c0 -36 8 -102 20 -150 l21 -86 -21 -46 c-11 -25 -23 -65 -27
-89 -7 -42 -55 -178 -74 -209 -29 -46 -60 -114 -60 -132 0 -10 -7 -26 -15 -34
-8 -9 -17 -27 -21 -42 -3 -15 -14 -46 -25 -70 -10 -23 -19 -53 -19 -65 0 -13
-7 -32 -15 -43 -8 -10 -15 -27 -15 -36 0 -15 -6 -30 -51 -119 -10 -21 -21 -55
-25 -78 -4 -23 -10 -41 -14 -41 -4 0 -11 -12 -15 -27 -3 -16 -12 -35 -19 -43
-20 -23 -76 -130 -76 -144 0 -7 -11 -18 -25 -24 -14 -6 -25 -16 -25 -21 0 -4
-11 -8 -25 -8 -26 0 -85 -55 -85 -79 0 -8 -4 -14 -10 -14 -5 0 -12 -11 -16
-24 -4 -19 -15 -26 -44 -31 -21 -4 -46 -12 -56 -19 -14 -11 -20 -10 -36 6 -10
10 -18 24 -18 32 0 8 -5 16 -12 18 -8 3 -5 18 10 50 13 26 27 82 33 134 6 49
17 111 25 138 7 27 11 52 8 57 -3 5 -2 9 3 9 4 0 17 46 27 103 11 56 30 136
44 177 13 41 30 98 37 125 18 67 38 120 53 137 6 8 15 30 18 49 4 19 11 40 17
46 5 7 7 20 3 28 -3 9 -2 14 3 10 5 -3 12 9 16 27 12 65 28 119 36 124 5 3 9
15 9 27 0 50 96 197 123 189 4 -1 7 2 7 8 0 5 5 10 11 10 22 0 38 35 39 82 0
25 5 69 12 97 9 41 16 51 32 52 18 0 19 1 3 7 -15 6 -13 10 15 27 56 33 128
134 128 180 0 11 7 33 15 49 8 15 15 38 15 49 0 11 7 28 16 38 35 39 -24 54
-70 18 -26 -20 -37 -14 -14 9 8 8 8 12 1 12 -6 0 -13 -7 -17 -15 -3 -8 -16
-15 -28 -16 -13 0 -18 -3 -11 -5 7 -3 9 -12 6 -21 -5 -12 -9 -11 -19 8 -14 25
-18 47 -7 36 3 -4 13 -1 21 6 13 10 14 9 8 -3 -4 -8 6 -1 22 17 23 24 33 28
43 20 10 -10 11 -9 2 3 -7 9 -9 20 -5 26 12 17 63 35 82 29 10 -3 21 -1 25 4
3 7 0 8 -9 5 -22 -8 -20 1 5 36 16 21 21 42 21 79 -1 28 3 53 10 57 8 5 9 2 5
-11 -4 -9 -2 -25 5 -33 10 -12 10 -14 1 -8 -15 8 -15 0 -3 -29 8 -19 9 -19 9
3 1 19 5 22 21 17 11 -3 20 -2 20 4 0 5 -8 12 -17 14 -14 4 -13 5 4 6 12 0 20
7 19 14 -7 30 -19 47 -35 47 -46 0 -53 45 -13 83 22 21 39 27 78 29 43 1 44 2
12 5 -21 2 -38 8 -38 12 0 4 -17 7 -37 7 -21 -1 -40 3 -43 8 -6 10 129 15 135
5 3 -3 18 -6 35 -7 24 0 33 6 45 28 17 32 19 44 7 36 -4 -2 -14 -1 -22 4 -12
7 -12 12 3 28 9 10 17 31 17 46 0 16 4 25 10 21 6 -4 10 5 10 19 0 16 6 26 15
26 14 0 20 24 16 58 -4 25 9 11 18 -20 l9 -33 1 33 c1 30 3 32 21 22 26 -14
26 -46 0 -60 -11 -6 -20 -21 -21 -33 -1 -21 -1 -21 -7 -2 -4 11 -16 21 -27 23
-18 2 -18 2 -2 -8 18 -11 24 -60 8 -60 -18 0 -16 -35 2 -45 10 -5 26 -22 35
-37 14 -24 15 -36 4 -99 -7 -43 -9 -76 -4 -81 5 -5 27 -8 48 -6 31 2 38 7 36
21 -2 10 2 33 8 52 6 18 12 59 14 92 3 56 21 172 52 353 8 47 12 94 8 104 -4
11 -3 17 2 14 5 -4 10 4 11 15 1 12 7 56 13 97 6 41 11 88 11 104 0 16 3 34 8
40 7 10 20 94 26 169 1 15 5 30 8 34 4 3 7 23 7 43 0 20 3 40 7 43 3 4 6 34 5
67 0 33 4 60 9 60 5 0 9 9 9 20 0 15 -9 22 -30 26 -42 9 -44 8 -51 -18 l-6
-23 -11 27 c-13 32 -26 40 -69 44 -28 3 -34 0 -29 -13 5 -12 1 -14 -15 -10
-15 4 -19 2 -15 -10 3 -8 6 -17 6 -19 0 -2 9 -4 19 -4 21 0 35 -28 26 -52 -4
-9 -14 -14 -25 -11 -10 3 -21 0 -25 -6 -7 -12 -65 39 -65 57 0 5 -7 12 -15 16
-10 3 -15 -1 -15 -13 0 -22 -23 -44 -35 -33 -4 4 -5 -3 -2 -15 3 -13 0 -26 -5
-30 -6 -3 -8 -1 -4 5 3 6 2 13 -3 17 -7 3 -7 15 -1 30 6 16 6 27 -2 31 -7 5
-8 2 -3 -6 6 -10 4 -12 -10 -6 -14 5 -15 4 -7 -7 6 -7 9 -22 6 -33 -2 -10 0
-25 5 -32 7 -12 12 -12 30 -1 11 8 20 19 18 26 -1 6 3 11 8 10 6 -1 9 -9 8
-17 -1 -8 3 -18 9 -21 7 -4 6 -18 -3 -43 -8 -22 -16 -31 -20 -24 -4 7 -3 20 2
30 8 15 6 17 -13 14 -13 -3 -27 -5 -32 -5 -4 -1 -6 -10 -3 -21 3 -10 0 -21 -7
-24 -6 -2 -4 -5 5 -5 8 -1 21 5 28 12 11 10 11 8 2 -10 -8 -16 -8 -23 2 -27 8
-4 7 -5 -3 -5 -38 3 -44 -1 -25 -14 12 -10 16 -22 13 -40 -4 -20 -1 -27 10
-27 8 0 12 -3 9 -7 -4 -3 10 -13 30 -21 32 -13 66 -17 162 -21 10 -1 12 -9 7
-32 -3 -18 -2 -37 2 -43 12 -15 23 -46 16 -46 -2 0 -9 11 -14 25 -11 29 -46
34 -53 8 -4 -14 -5 -12 -6 5 -1 25 -16 30 -25 7 -3 -8 -18 -16 -33 -16 -17 -1
-21 -3 -10 -6 9 -2 17 -11 17 -19 0 -17 9 -18 46 -3 26 9 27 9 13 -8 -9 -10
-19 -26 -22 -36 -6 -16 -5 -16 20 0 l26 17 -7 -79 c-4 -44 -12 -97 -19 -119
-9 -33 -12 -36 -23 -21 -8 10 -20 15 -32 11 -14 -5 -22 0 -30 19 -8 18 -8 25
-1 25 6 0 9 7 5 15 -3 9 0 15 9 15 7 0 17 9 20 21 10 30 0 33 -18 5 -12 -17
-24 -23 -42 -22 -14 2 -25 -1 -25 -6 0 -5 -8 -2 -17 8 -16 16 -18 15 -27 -5
-7 -16 -16 -21 -30 -17 -21 5 -21 5 -2 -9 22 -17 21 -17 -41 -18 -13 -1 -23
-5 -23 -9 0 -4 0 -11 0 -15 0 -4 6 -8 13 -9 34 -3 38 -5 32 -16 -4 -7 1 -4 11
7 16 19 16 19 10 1 -4 -11 -3 -22 2 -25 5 -3 6 -15 1 -26 -7 -18 -8 -18 -8 -2
-1 28 -25 14 -32 -19 -4 -16 -7 -23 -8 -16 0 6 -5 12 -10 12 -5 0 -7 -10 -4
-22 3 -13 2 -20 -2 -16 -14 13 -33 -35 -21 -51 9 -12 7 -13 -7 -8 -10 4 -21 7
-23 7 -2 0 -4 7 -4 16 0 8 4 13 9 9 18 -11 20 12 6 70 -7 33 -11 63 -9 67 3 4
-13 38 -36 75 -40 67 -49 90 -30 78 6 -3 10 4 10 17 0 13 5 30 10 38 9 13 12
13 25 -3 7 -11 11 -26 8 -35 -4 -13 -3 -14 5 -3 8 11 10 11 15 0 4 -11 6 -11
6 1 1 8 -6 28 -14 43 -9 18 -10 25 -2 20 9 -5 9 -4 0 8 -9 11 -8 22 4 47 14
28 35 45 32 25 -3 -20 2 -34 10 -29 5 3 9 -10 8 -29 -1 -35 -10 -45 -22 -25
-15 25 -22 -3 -7 -29 l16 -29 17 39 c19 42 18 85 -5 130 -8 16 -11 27 -6 24 5
-3 12 5 15 17 4 13 14 30 22 40 8 9 17 31 20 50 2 18 5 35 6 38 1 3 -7 19 -16
37 -17 32 -25 141 -8 115 4 -7 7 -25 5 -40 -2 -19 -1 -21 3 -7 5 17 9 13 20
-20 l13 -40 -6 40 c-3 22 -6 48 -7 57 -1 9 -4 15 -8 12 -11 -7 -22 28 -24 81
-2 38 -1 44 6 25 l8 -25 -2 25 c-2 19 -9 27 -32 32 l-30 7 30 -2 c17 0 39 4
50 11 l20 13 -20 -2 c-60 -4 -63 -1 -63 46 l0 45 36 -29 c19 -17 40 -28 45
-24 5 3 5 9 -1 15 -6 6 -8 18 -5 27 4 12 2 11 -9 -3 -12 -15 -17 -16 -23 -6
-6 9 -4 11 4 5 9 -5 8 1 -2 16 -11 16 -15 45 -14 91 2 60 0 68 -18 70 -19 3
-19 4 2 16 17 10 29 8 66 -8 25 -11 48 -28 50 -38 3 -12 5 -10 6 7 1 14 -9 31
-24 43 -19 15 -25 29 -25 59 0 22 -5 39 -11 39 -6 0 -9 6 -6 14 3 8 0 19 -7
25 -7 6 -11 23 -8 39 3 22 0 29 -13 29 -9 0 -14 -6 -11 -14 3 -7 1 -13 -5 -13
-6 0 -7 -4 -4 -10 3 -6 -1 -7 -9 -4 -9 4 -18 0 -22 -9 -3 -9 -12 -13 -20 -10
-10 4 -14 -3 -14 -22 0 -16 -11 -52 -25 -81 -21 -45 -28 -52 -50 -50 -14 2
-25 -1 -25 -5 0 -5 -11 -9 -25 -9 -15 0 -31 -10 -42 -26 -28 -39 -105 -134
-149 -181 -21 -24 -55 -61 -74 -83 -19 -22 -41 -40 -47 -40 -7 0 -43 -26 -80
-58 -97 -83 -129 -103 -163 -104 -16 -1 -30 -5 -30 -10 0 -14 -59 35 -59 50
-1 6 -4 12 -8 12 -5 0 -21 22 -36 50 -15 27 -39 58 -52 68 -14 11 -25 25 -25
31 0 6 -5 11 -11 11 -5 0 -8 4 -5 8 3 5 -3 18 -14 29 -10 12 -16 23 -13 27 3
3 -1 8 -9 11 -11 4 -13 25 -11 101 2 55 -1 103 -8 115 -19 36 -43 59 -61 59
-22 0 -27 10 -18 35 10 29 -5 73 -41 117 l-31 39 36 -15 c35 -15 36 -14 36 7
-1 27 -33 67 -53 67 -13 0 -33 -34 -30 -50 1 -3 -21 -5 -49 -5 -38 0 -53 5
-64 19 -21 29 -18 66 5 66 10 0 22 7 25 16 13 35 -59 144 -96 144 -18 0 -19
-4 -13 -49 6 -44 5 -49 -15 -54 -21 -5 -22 -9 -15 -84 6 -70 12 -85 55 -153
26 -41 46 -77 44 -79 -2 -2 -33 24 -69 58 -55 53 -67 61 -84 52 -11 -6 -22
-11 -26 -11 -3 0 -41 35 -83 78 -42 42 -103 95 -134 117 -64 44 -88 84 -81
131 3 18 0 34 -5 38 -14 8 -3 46 14 46 7 0 17 -8 23 -17 9 -16 13 -16 78 -1
45 11 90 14 134 11 47 -4 73 -1 94 10 l29 14 -40 24 c-21 14 -57 31 -79 38
-46 16 -165 30 -165 20 0 -4 -27 -7 -59 -7 -68 0 -122 -15 -144 -40 -9 -11
-16 -46 -19 -101 l-5 -83 43 6 c40 5 45 3 81 -36 59 -63 76 -78 88 -78 19 0
78 -68 157 -183 43 -62 93 -134 112 -162 65 -93 49 -140 -20 -59 -79 92 -109
108 -99 54 3 -18 1 -30 -5 -30 -17 0 -70 43 -70 56 0 11 -76 64 -91 64 -6 0
-2 -51 6 -77 4 -13 11 -23 14 -23 4 0 24 -30 45 -67 49 -90 54 -96 101 -116
22 -10 47 -22 56 -27 9 -5 32 -12 50 -15 41 -8 80 -52 58 -66 -8 -5 -22 -9
-31 -9 -11 0 -15 -5 -12 -14 8 -20 -22 -27 -115 -28 -106 0 -163 20 -231 82
-38 35 -63 50 -82 50 -16 0 -28 -6 -29 -12 0 -7 -1 -69 -2 -138 -2 -123 -17
-190 -42 -190 -42 0 -86 27 -145 88 -79 84 -145 196 -176 302 -28 96 -90 400
-99 486 -9 81 17 209 62 302 72 146 268 316 488 422 126 60 254 114 345 145
52 18 118 42 147 53 28 12 92 31 142 42 49 12 101 30 115 41 13 10 37 19 53
19 52 0 73 49 31 71 -13 7 -29 19 -36 28 -9 11 -11 11 -6 2 5 -10 -2 -8 -22 5
-39 27 -81 44 -88 37 -12 -12 -6 -25 8 -20 10 4 13 1 10 -8 -3 -8 -14 -17 -25
-20 -10 -3 -28 -8 -39 -11 -11 -3 -20 -1 -20 4 0 5 10 12 22 15 12 4 19 9 15
13 -3 3 -14 3 -24 -1 -10 -5 -21 -7 -26 -7 -4 1 -7 -7 -7 -18 0 -14 -7 -20
-22 -20 -17 0 -19 3 -10 12 7 7 12 23 11 37 0 15 -3 20 -6 14 -2 -7 -9 -13
-14 -13 -5 0 -19 -10 -31 -22 l-23 -23 -5 30 c-3 18 -8 25 -13 18 -4 -6 -4
-19 -1 -30 5 -15 4 -16 -5 -3 -10 13 -13 13 -25 -2 -17 -23 -32 -23 -48 0 -7
11 -26 21 -41 24 -27 5 -27 5 -10 -15 10 -11 12 -17 6 -13 -18 10 -16 -5 3
-32 14 -20 14 -22 -4 -22 -11 0 -22 6 -25 13 -8 21 -85 43 -106 30 -21 -13
-74 6 -89 34 -8 14 -9 9 -5 -23 6 -43 7 -42 -53 -48 -37 -3 -56 -14 -49 -27 3
-5 0 -6 -8 -3 -9 3 -16 -3 -20 -15 -6 -24 -31 -22 -126 11 -81 27 -177 22
-129 -8 7 -5 8 -3 3 6 -6 10 -4 11 6 4 8 -5 19 -9 24 -9 40 -2 95 -19 95 -28
0 -8 4 -7 9 2 11 17 57 8 58 -11 0 -7 4 -21 8 -30 6 -15 2 -17 -24 -14 -17 2
-34 0 -37 -5 -3 -5 -35 -9 -72 -9 -48 0 -75 -5 -92 -17 -14 -10 -27 -17 -30
-15 -15 6 -43 -13 -52 -36 l-11 -27 -7 25 c-6 23 -8 21 -20 -20 l-14 -45 -7
40 c-6 39 -6 39 -8 7 0 -19 -10 -47 -22 -63 -17 -24 -23 -27 -39 -17 -18 12
-18 12 1 26 16 11 19 24 17 78 l-2 66 -16 -42 c-9 -23 -21 -45 -27 -48 -6 -4
-15 -20 -19 -37 -7 -28 -7 -28 -15 -6 -5 13 -14 19 -20 15 -8 -4 -7 -9 2 -15
10 -6 8 -9 -9 -9 -15 0 -26 -9 -32 -25 -12 -32 -22 -33 -14 -1 5 21 3 24 -15
19 -21 -5 -21 -2 -21 131 0 78 4 135 9 132 16 -10 23 28 7 39 -12 9 -14 56
-15 274 l-2 264 26 -17 c15 -10 36 -16 48 -14 20 4 19 6 -10 24 -18 10 -33 24
-33 30 0 6 -7 17 -15 24 -13 11 -15 76 -15 476 l0 464 -1430 0 -1430 0 0
-3815z m5191 -187 c7 -13 14 -35 15 -51 3 -22 -2 -30 -24 -39 -15 -6 -30 -11
-34 -10 -15 3 -8 -11 14 -29 27 -24 27 -24 21 4 -4 20 -3 20 7 4 10 -16 7 -24
-21 -53 -34 -35 -63 -48 -38 -17 12 15 12 16 -1 8 -8 -4 -23 -15 -33 -23 -25
-22 -28 -12 -12 43 8 26 15 58 15 70 0 13 6 28 14 34 8 7 22 27 31 46 19 41
30 44 46 13z m151 -168 c2 -16 -2 -25 -11 -25 -8 0 -16 -7 -19 -15 -3 -8 -1
-12 3 -8 4 4 16 -3 26 -15 10 -12 18 -17 19 -10 0 18 30 4 30 -14 0 -8 -5 -11
-12 -8 -7 4 -3 -2 9 -13 20 -17 21 -22 8 -32 -11 -9 -15 -9 -15 -1 0 6 -11 11
-25 11 -22 0 -24 3 -19 29 4 16 1 32 -5 35 -7 5 -11 -2 -11 -17 0 -27 -23 -52
-40 -42 -5 3 -10 2 -10 -3 0 -6 11 -13 25 -16 15 -4 23 -11 19 -17 -4 -8 -9
-7 -15 2 -4 7 -10 11 -13 8 -8 -8 -15 -60 -8 -55 4 2 16 0 27 -5 20 -8 20 -8
0 -8 -12 -1 -28 -14 -38 -31 -10 -16 -26 -31 -35 -31 -9 -1 -27 -3 -39 -4 -19
-2 -23 3 -24 24 0 14 -2 36 -3 48 -2 14 4 23 16 26 15 4 17 1 12 -21 l-5 -27
20 24 c20 22 30 78 12 67 -4 -3 -6 7 -4 22 l5 27 -22 -30 c-21 -28 -22 -25 -5
18 5 12 2 17 -11 17 -17 1 -16 3 5 20 13 11 30 20 38 20 8 0 12 4 9 9 -3 5 1
14 9 21 13 10 15 9 16 -11 1 -13 1 -28 0 -34 -1 -5 7 0 19 11 12 12 23 33 23
48 1 16 7 24 15 21 6 -2 12 1 12 7 0 19 8 4 12 -22z m-1632 -1425 c-7 -8 -10
-22 -7 -32 3 -15 5 -14 14 6 10 25 10 24 16 -7 4 -18 2 -44 -4 -59 l-10 -27
22 19 23 20 -22 -36 c-12 -20 -22 -43 -22 -52 0 -22 -75 -90 -115 -104 l-34
-11 14 36 c7 20 27 68 44 105 17 38 31 76 31 85 0 21 42 82 53 75 4 -2 3 -11
-3 -18z m347 0 c-4 -8 -1 -18 5 -21 8 -5 5 -10 -8 -15 -18 -7 -18 -8 0 -8 14
-1 16 -4 7 -14 -6 -8 -8 -17 -4 -20 3 -4 2 -7 -4 -7 -6 0 -8 -11 -6 -25 4 -20
0 -25 -22 -31 -15 -4 -24 -12 -21 -19 2 -7 0 -17 -6 -23 -8 -8 -5 -9 11 -5 25
6 28 -12 4 -26 -11 -6 -24 -6 -35 0 -12 7 -18 6 -18 -1 0 -6 14 -13 31 -17 38
-7 45 -24 24 -57 -17 -25 -45 -36 -45 -16 0 5 -10 14 -21 21 -15 8 -19 8 -15
0 4 -6 1 -11 -6 -12 -9 0 -9 -2 2 -6 33 -13 39 -29 16 -43 -11 -8 -27 -13 -34
-11 -8 1 -20 -3 -28 -10 -8 -7 -28 -12 -44 -11 -16 0 -32 -2 -34 -6 -2 -4 24
-7 59 -7 35 0 61 3 59 7 -3 4 1 5 9 2 8 -2 13 -19 13 -37 0 -18 3 -45 7 -62 4
-16 4 -23 0 -15 -13 31 -35 39 -56 19 -11 -10 -23 -16 -27 -14 -4 2 -7 -2 -7
-10 0 -21 30 -28 43 -10 7 9 15 12 18 6 3 -5 1 -11 -6 -13 -22 -8 1 -37 34
-43 29 -6 33 -11 35 -38 0 -18 -1 -27 -3 -21 -3 6 -16 9 -29 6 -15 -2 -25 0
-25 7 0 6 -5 11 -11 11 -5 0 -8 -4 -4 -9 3 -6 -6 -6 -24 -1 -21 6 -31 5 -34
-3 -4 -13 -57 -18 -57 -5 0 4 12 8 26 8 14 0 23 4 20 9 -8 13 16 20 46 14 14
-3 29 0 32 6 5 7 -1 11 -14 11 -12 0 -18 5 -15 10 3 6 -1 10 -9 10 -8 0 -20 9
-26 20 -13 25 -30 26 -31 3 0 -14 -3 -12 -10 5 -10 27 -46 26 -41 -1 2 -11 -4
-17 -17 -17 -30 0 -34 -17 -5 -23 21 -4 26 0 31 24 3 16 10 29 15 29 5 0 6 -9
3 -20 -4 -13 -2 -20 6 -20 7 0 3 -9 -9 -20 -12 -11 -26 -20 -33 -20 -6 0 -22
-11 -35 -25 l-24 -26 -30 34 c-42 49 -39 76 15 126 25 23 44 44 44 46 -1 3 2
22 6 43 4 20 8 53 9 72 1 34 3 35 46 41 47 6 150 38 150 46 0 3 -11 3 -24 1
-23 -5 -24 -3 -19 26 3 17 11 34 17 38 7 5 3 8 -9 8 -17 0 -17 2 5 17 14 9 29
22 33 27 5 6 7 -1 4 -16 -5 -33 0 -34 48 -11 33 16 46 33 25 33 -6 0 -8 10 -4
24 8 33 -13 43 -28 12 -6 -14 -16 -26 -21 -26 -5 0 2 15 15 33 14 17 28 42 32
55 4 12 14 22 23 22 9 0 13 -6 10 -15z"/>
<path d="M8620 6060 c0 -1249 -3 -1570 -12 -1570 -9 0 -9 -3 1 -9 11 -7 9 -10
-10 -14 l-24 -4 23 -8 22 -7 0 -462 0 -461 -25 43 c-85 149 -265 348 -415 458
-231 171 -457 279 -675 324 -22 4 -71 15 -110 24 -38 9 -90 16 -114 16 -24 0
-70 7 -103 15 -54 15 -62 14 -91 0 -47 -24 -220 -74 -231 -67 -6 3 8 14 30 23
l39 18 -35 -6 c-19 -3 -51 -13 -71 -23 -20 -10 -47 -16 -62 -13 -19 4 -29 0
-33 -11 -8 -21 -33 -20 -119 4 -38 11 -86 19 -105 18 l-35 -1 35 -6 c30 -5 32
-7 15 -15 -18 -7 -16 -10 20 -27 35 -16 37 -19 14 -19 -16 0 -36 -12 -52 -30
l-27 -30 27 0 27 0 -24 -17 c-14 -9 -30 -22 -36 -28 -6 -5 -21 -17 -33 -25
-11 -8 -21 -23 -21 -33 0 -16 2 -17 15 -7 11 9 19 10 27 2 14 -14 0 -35 -19
-28 -8 3 -26 -5 -41 -19 -24 -23 -27 -23 -34 -7 -4 9 -6 -30 -3 -88 3 -58 5
-115 5 -128 0 -13 4 -41 9 -63 11 -47 2 -55 -32 -29 -31 25 -37 25 -37 1 0
-10 -9 -21 -20 -24 -32 -8 -24 -23 34 -61 29 -19 56 -42 59 -50 10 -24 -16
-37 -53 -26 -18 5 -37 7 -42 4 -14 -9 1 -24 25 -24 25 0 12 -16 -18 -23 -11
-2 1 -4 27 -4 28 0 58 -8 74 -18 14 -9 27 -15 29 -13 2 2 20 28 42 60 44 65
186 218 203 218 32 0 95 46 133 99 23 32 59 68 79 79 39 23 74 29 62 11 -3 -6
25 5 62 24 101 51 121 57 209 62 44 3 103 7 131 8 35 3 74 16 126 44 80 43
122 58 111 40 -4 -6 0 -8 10 -4 46 19 50 17 22 -8 -22 -20 -24 -25 -10 -20 11
4 37 9 59 12 l38 6 -7 -34 -7 -34 36 34 c54 52 55 30 1 -28 -59 -63 -47 -66
21 -7 47 41 55 45 94 41 39 -4 118 -42 146 -70 13 -12 28 -52 29 -75 0 -8 10
-31 23 -51 12 -20 22 -43 22 -51 0 -17 29 -46 39 -39 3 2 11 -5 16 -15 6 -11
19 -29 30 -40 70 -72 83 -91 72 -109 -7 -14 -7 -20 1 -23 7 -2 12 -10 12 -18
0 -7 15 -20 34 -28 35 -15 46 -44 46 -131 0 -37 23 -97 48 -128 6 -7 11 -15
11 -19 1 -4 4 -15 7 -23 4 -9 -3 -37 -13 -63 -14 -33 -19 -62 -15 -97 7 -90 3
-128 -17 -148 -18 -18 -24 -19 -98 -7 -44 7 -96 10 -116 6 l-36 -7 5 -71 c5
-60 2 -81 -18 -131 -22 -56 -55 -86 -77 -72 -5 2 -11 36 -13 75 -5 60 -10 77
-37 110 -17 21 -31 43 -31 47 0 9 -45 58 -104 111 -20 19 -36 40 -36 47 0 15
-146 65 -188 65 -60 0 -171 -76 -194 -133 -22 -54 -22 -150 0 -206 14 -35 24
-47 52 -56 77 -25 99 -39 115 -74 19 -44 26 -74 29 -129 1 -25 8 -47 17 -53 8
-5 9 -9 3 -9 -6 0 -10 -14 -9 -30 2 -29 -30 -74 -52 -75 -19 -1 -53 -27 -53
-41 0 -15 -78 -54 -110 -54 -9 0 -23 -6 -29 -14 -16 -19 13 -36 61 -36 38 0
118 -34 118 -50 0 -5 11 -33 25 -62 14 -28 25 -64 25 -79 0 -15 3 -29 8 -31
10 -4 43 -95 49 -135 6 -37 -3 -41 -47 -18 -33 17 -91 84 -84 97 3 4 0 8 -5 8
-6 0 -11 -16 -11 -35 0 -19 3 -35 8 -35 4 0 20 -11 37 -25 16 -14 59 -40 97
-58 72 -34 88 -55 88 -112 0 -41 -30 -65 -94 -76 l-41 -6 38 -2 c90 -3 146 60
127 143 -7 31 -6 36 11 36 24 0 52 43 54 83 3 59 26 117 47 117 11 0 16 5 13
10 -3 6 1 10 11 10 14 0 15 2 3 17 -11 13 -11 15 -1 9 14 -9 44 23 35 37 -3 4
12 1 32 -7 47 -20 61 -20 45 -1 -11 13 -8 15 21 16 l34 2 -34 6 c-34 6 -51 34
-30 47 19 12 64 12 78 0 12 -9 13 -8 6 3 -6 11 -4 13 11 7 10 -4 35 -10 54
-13 19 -3 42 -10 51 -14 11 -6 21 -4 29 6 7 8 24 16 39 16 14 1 -5 7 -44 13
-74 13 -125 30 -125 43 0 5 -11 15 -25 23 -29 18 -21 37 19 44 16 3 33 9 39
15 5 5 26 7 46 4 37 -5 38 -5 39 28 0 18 -4 39 -9 45 -12 15 -8 46 6 56 6 4
20 8 33 8 12 0 25 7 28 15 4 8 15 15 25 15 10 0 28 9 39 20 10 10 39 31 62 46
24 15 47 33 51 40 4 8 14 14 22 14 12 0 80 76 80 90 0 3 10 16 22 30 12 14 31
36 42 50 l20 25 1 -682 c0 -376 -3 -683 -6 -683 -4 0 -13 8 -20 18 -12 16 -13
15 -8 -5 4 -12 12 -24 20 -27 22 -8 18 -47 -3 -40 -16 5 -16 4 -2 -5 14 -9 17
-28 15 -116 0 -58 -2 -101 -4 -95 -2 5 -8 10 -13 10 -6 0 -7 -4 -4 -10 3 -5
-1 -10 -9 -10 -10 0 -13 6 -10 15 4 8 1 15 -5 15 -20 0 -12 -29 12 -42 12 -7
25 -11 28 -10 4 1 5 -8 2 -19 -5 -17 -11 -20 -34 -15 -38 7 -36 2 6 -24 23
-14 35 -29 35 -43 0 -17 -2 -19 -9 -7 -6 8 -7 19 -5 25 3 5 -2 1 -10 -9 -9
-11 -16 -26 -16 -33 0 -11 -5 -11 -20 -3 -23 12 -27 35 -5 26 12 -4 13 -2 6
12 -5 9 -9 21 -10 27 -1 9 -61 17 -61 8 0 -3 10 -13 23 -24 26 -21 11 -25 -17
-4 -27 21 -8 62 31 67 27 3 27 3 7 15 -15 8 -31 9 -53 3 -19 -5 -31 -5 -31 1
0 5 -10 7 -23 4 -15 -4 -28 -1 -36 9 -20 24 -33 19 -19 -6 6 -13 13 -29 14
-36 5 -26 14 -42 24 -42 6 0 8 5 4 12 -4 6 -3 8 4 5 12 -8 -7 -57 -23 -57 -6
0 -19 -16 -29 -35 -14 -25 -22 -32 -31 -25 -6 5 -15 7 -19 3 -4 -4 -9 3 -13
15 -3 13 -13 22 -24 22 -26 0 -24 -12 6 -40 17 -16 22 -27 15 -34 -7 -7 -14
-6 -22 2 -9 9 -9 12 1 12 7 0 9 4 6 10 -9 15 -25 12 -25 -5 0 -20 -10 -19 -26
3 -12 16 -13 15 -14 -6 0 -22 -1 -22 -35 -8 -19 8 -35 14 -35 12 0 -1 23 -17
50 -35 28 -18 50 -36 50 -41 0 -5 3 -17 6 -27 5 -17 5 -17 -9 0 -8 10 -21 15
-31 11 -14 -5 -12 -9 9 -26 14 -11 25 -24 25 -31 0 -6 -13 2 -30 18 -16 15
-28 32 -27 37 1 6 -7 15 -18 21 -11 7 -23 16 -26 21 -4 5 -11 6 -17 2 -5 -3
-16 2 -23 11 -13 15 -11 16 16 11 24 -5 27 -4 15 5 -8 7 -16 19 -18 27 -6 24
-26 31 -33 11 -12 -31 2 -70 35 -99 22 -19 29 -31 22 -38 -18 -15 -47 -10 -62
10 -8 11 -14 15 -14 9 0 -5 9 -18 20 -28 19 -17 18 -41 -1 -29 -6 3 0 -14 12
-37 13 -24 23 -47 24 -51 0 -3 4 -10 9 -15 5 -5 6 -3 2 5 -4 6 -2 12 3 12 6 0
12 -7 12 -15 2 -27 4 -30 32 -66 15 -20 27 -43 27 -52 0 -10 6 -17 14 -17 7 0
20 -8 27 -17 12 -15 12 -16 -3 -10 -15 5 -16 4 -5 -13 6 -11 22 -20 34 -20 12
0 25 -5 28 -10 4 -7 -3 -8 -20 -4 -21 5 -26 4 -22 -7 3 -8 11 -31 18 -52 9
-29 17 -37 36 -37 12 0 23 -5 23 -11 0 -6 -7 -9 -15 -5 -10 4 -15 -1 -15 -14
0 -11 5 -20 11 -20 5 0 8 -4 4 -9 -3 -6 1 -25 10 -43 8 -18 13 -25 10 -15 -6
24 12 21 25 -4 9 -15 8 -24 -1 -35 -10 -12 -9 -18 5 -32 14 -14 16 -15 11 -1
-4 10 0 16 9 16 8 0 12 -6 9 -14 -3 -7 2 -13 11 -13 9 0 16 -5 16 -11 0 -6 9
-9 19 -6 12 3 22 -1 25 -10 4 -8 13 -13 21 -9 8 3 17 0 21 -6 4 -6 3 -8 -4 -4
-6 3 -14 1 -18 -5 -5 -8 -8 -8 -14 0 -3 7 -22 13 -42 15 -19 2 -40 6 -47 10
-6 4 -11 1 -11 -8 0 -31 13 -46 40 -46 16 0 31 -4 34 -9 3 -5 22 -8 42 -6 33
3 74 -11 74 -26 0 -3 -20 -6 -45 -5 -25 0 -45 3 -45 6 0 3 -18 6 -39 6 -44 2
-61 -18 -37 -42 12 -12 272 -14 1785 -14 l1771 0 0 3815 0 3815 -1670 0 -1670
0 0 -1570z"/>
<path d="M3900 5740 c6 -11 23 -26 38 -34 27 -14 62 -67 77 -114 6 -22 5 -23
-14 -12 -12 6 -37 27 -55 47 -46 50 -53 23 -15 -57 47 -100 201 -242 259 -239
10 0 11 2 2 6 -7 2 -17 13 -22 24 -9 15 -1 13 37 -11 48 -31 98 -38 133 -20
35 19 63 81 62 142 -1 62 -16 95 -47 104 -11 4 -28 13 -37 22 -16 14 -20 13
-37 -2 -18 -16 -20 -16 -41 11 l-22 28 21 -36 c12 -20 21 -47 21 -60 -1 -24
-1 -24 -16 -4 -16 20 -16 19 -9 -4 10 -33 -4 -25 -72 39 -32 31 -78 71 -103
90 -25 19 -47 37 -50 41 -14 17 -87 59 -103 59 -15 0 -16 -3 -7 -20z"/>
<path d="M4635 5231 c-3 -5 -19 -12 -35 -16 -19 -4 -30 -13 -30 -24 0 -9 -14
-33 -30 -53 -42 -51 -58 -101 -65 -210 -7 -104 9 -177 59 -262 36 -61 117
-120 156 -113 27 6 30 4 46 -46 22 -67 42 -97 64 -97 16 0 29 12 84 81 7 9 16
33 20 54 4 21 14 48 22 61 9 12 14 28 13 36 -1 7 -1 20 0 28 1 12 3 12 10 2
13 -21 35 111 27 160 -4 23 -12 48 -18 55 -6 7 -8 13 -4 13 4 0 -1 11 -10 25
-9 14 -14 25 -10 25 3 0 -2 13 -12 28 -9 15 -26 43 -37 62 -11 19 -32 47 -47
62 -14 15 -24 28 -22 28 3 0 -2 7 -11 16 -9 9 -23 28 -32 41 -26 39 -122 70
-138 44z"/>
<path d="M6140 5110 c0 -11 13 -14 45 -10 11 1 17 -1 13 -6 -13 -12 -141 -14
-155 -2 -10 8 -17 8 -25 0 -9 -9 -8 -12 3 -13 9 0 6 -4 -6 -9 -18 -8 -18 -9 5
-10 l25 -2 -25 -9 c-18 -6 -13 -7 21 -3 58 6 229 -24 229 -41 0 -10 152 -50
270 -70 19 -4 44 -8 55 -11 11 -2 2 5 -20 16 l-40 19 40 -5 40 -6 -33 21 c-29
19 -40 20 -85 12 -29 -5 -54 -7 -56 -5 -2 2 2 4 10 5 8 0 -4 6 -26 13 -22 7
-39 18 -37 24 1 8 -14 12 -43 12 -31 0 -47 5 -51 15 -3 8 -16 17 -27 21 -12 4
-33 14 -47 24 -32 22 -80 34 -80 20z"/>
<path d="M6220 5115 c0 -12 25 -32 50 -40 14 -4 34 -14 45 -21 11 -8 30 -14
44 -14 13 0 32 -6 40 -13 28 -23 89 -36 123 -26 23 6 36 5 47 -4 9 -8 45 -19
81 -26 36 -7 83 -17 105 -22 22 -5 87 -19 145 -30 58 -11 137 -27 175 -34 39
-8 92 -14 118 -15 27 0 56 -4 65 -9 9 -5 37 -12 62 -15 l45 -7 -29 16 c-16 8
-37 15 -45 13 -9 -1 -33 4 -54 11 -21 7 -48 11 -59 8 -12 -3 -27 1 -36 10 -14
14 -11 15 39 10 l54 -6 -65 15 c-36 8 -86 22 -112 30 -26 8 -58 14 -71 14 -13
0 -39 7 -57 17 -42 21 -119 37 -290 63 -74 11 -146 24 -160 29 -44 16 -113 31
-160 35 -25 2 -57 7 -72 11 -16 4 -28 4 -28 0z"/>
<path d="M5681 5031 c-11 -19 -11 -25 0 -32 8 -5 10 -9 5 -9 -5 0 -3 -7 4 -15
9 -10 9 -15 1 -15 -6 0 -11 -13 -11 -30 0 -20 5 -30 15 -30 8 0 15 8 15 18 0
13 2 14 9 3 8 -12 24 -12 105 -1 53 7 96 17 96 22 0 5 -8 21 -17 36 -9 15 -18
28 -19 30 -1 2 -17 -6 -35 -17 -60 -37 -107 -22 -145 44 -10 19 -11 19 -23 -4z"/>
<path d="M5940 4930 c0 -4 -47 -15 -105 -25 -97 -17 -105 -20 -105 -41 0 -18
4 -21 21 -17 17 5 20 2 18 -18 -2 -13 1 -30 6 -38 5 -9 5 -16 -1 -18 -5 -2 -6
-44 -1 -105 4 -57 8 -113 8 -124 1 -16 6 -20 20 -17 23 6 25 21 4 29 -16 7
-21 26 -6 22 5 -2 17 6 26 17 11 13 15 15 12 5 -4 -13 15 -18 113 -28 117 -13
179 -7 265 24 14 5 17 4 10 -4 -22 -24 -166 -45 -275 -39 -58 3 -98 3 -90 0
66 -25 165 -77 185 -97 36 -36 33 -63 -2 -30 -29 27 -112 77 -175 106 -37 17
-38 17 -38 -2 0 -13 9 -22 25 -26 14 -3 25 -10 25 -15 0 -5 4 -9 9 -9 5 0 25
-7 45 -15 20 -8 38 -15 41 -15 3 0 18 -6 34 -14 28 -15 28 -15 20 -78 -5 -35
-11 -75 -13 -90 -4 -19 -1 -28 12 -31 16 -4 16 -5 0 -6 -18 -1 -23 -20 -32
-128 -3 -34 -8 -81 -11 -105 -6 -42 -6 -42 9 -18 14 23 22 16 17 -14 -2 -12
31 -35 49 -35 10 0 11 2 3 6 -10 3 -10 8 1 18 7 8 16 33 20 57 5 29 10 38 15
29 7 -11 10 -10 15 5 3 10 3 -12 -1 -51 -3 -38 -6 -83 -8 -100 -1 -16 -5 -45
-9 -62 -8 -34 1 -42 22 -21 9 9 12 9 12 0 0 -10 5 -10 20 -2 15 8 20 8 20 -2
1 -37 22 30 28 89 6 60 7 64 13 33 5 -29 7 -30 8 -9 2 38 27 94 35 80 4 -6 14
-11 23 -11 13 0 15 8 10 41 -6 47 -19 59 -61 59 l-29 0 7 53 c4 28 8 57 8 64
1 7 5 10 10 7 4 -3 8 15 8 40 0 24 3 52 7 62 4 12 3 15 -5 10 -7 -4 -12 -3
-12 3 0 5 5 13 11 17 6 3 9 15 6 25 -3 11 -1 19 4 19 5 0 9 13 9 29 0 48 9 61
45 61 26 0 40 8 64 38 47 55 51 61 51 67 0 3 26 31 58 64 56 57 138 120 176
134 17 7 18 9 2 25 -9 10 -16 23 -16 28 0 6 -5 15 -11 21 -9 9 -17 6 -30 -12
-27 -33 -23 -44 14 -41 17 2 22 1 10 -1 -13 -2 -23 -11 -23 -19 0 -9 -3 -14
-7 -12 -5 3 -23 11 -40 18 -18 8 -33 17 -33 21 0 4 -11 10 -24 13 -17 4 -26
15 -31 37 -9 39 -30 47 -59 20 -15 -14 -35 -21 -62 -21 -53 0 -60 6 -68 60 -3
17 -36 27 -36 10 0 -6 -16 -18 -36 -26 -29 -12 -42 -13 -65 -4 -15 7 -30 18
-33 26 -6 15 -43 19 -64 5 -7 -4 -31 -5 -53 -1 -21 4 -39 4 -39 0z"/>
<path d="M6044 3874 c-7 -3 -10 -13 -7 -23 6 -23 -13 -37 -31 -22 -17 14 -26
4 -25 -28 0 -24 1 -24 9 -6 10 23 10 24 16 -33 3 -26 1 -42 -4 -38 -5 3 -12
-4 -16 -17 -3 -12 -1 -24 5 -26 6 -2 2 -12 -8 -25 -18 -21 -18 -21 3 -3 11 9
26 17 32 17 6 0 15 8 21 17 8 15 11 15 26 3 13 -10 13 -15 3 -21 -10 -7 -9 -9
4 -9 10 0 22 -9 28 -21 7 -11 14 -18 17 -15 3 3 1 12 -5 19 -7 8 -9 17 -5 20
3 4 1 7 -5 7 -19 0 -14 20 6 21 9 1 4 5 -13 9 -28 7 -28 8 -5 9 14 1 30 5 36
9 12 8 27 55 15 48 -4 -3 -25 3 -46 13 -38 17 -40 20 -39 59 1 23 1 42 0 41 0
0 -6 -3 -12 -5z"/>
<path d="M7180 3756 c0 -3 9 -20 19 -38 11 -18 25 -53 31 -78 7 -25 22 -67 35
-95 32 -73 39 -115 18 -115 -16 0 -92 74 -146 140 l-27 35 2 -75 c3 -60 8 -81
26 -106 22 -29 150 -114 172 -114 13 0 30 43 30 76 0 26 6 29 44 14 22 -8 28
-5 46 21 12 16 25 27 30 24 10 -6 40 46 40 70 0 28 -37 90 -84 141 -38 41 -45
46 -46 27 0 -26 -29 -22 -56 8 -9 10 -21 19 -25 19 -5 0 -25 11 -45 25 -33 22
-64 32 -64 21z"/>
<path d="M6804 3104 c8 -22 52 -118 99 -212 84 -169 89 -184 72 -246 -6 -22
-4 -32 10 -42 12 -9 16 -22 13 -43 l-4 -30 50 4 c84 8 120 15 140 30 18 13 18
16 2 39 -9 14 -27 33 -41 42 -14 9 -42 39 -62 68 -20 28 -57 76 -82 106 -25
30 -53 70 -62 90 -13 29 -59 102 -136 217 -8 12 -8 5 1 -23z"/>
<path d="M6755 2614 c9 -60 19 -74 54 -74 15 0 32 -5 39 -12 9 -9 12 -7 12 9
0 12 -6 23 -12 26 -10 3 -10 7 1 20 7 10 19 17 25 17 6 0 4 -4 -4 -10 -12 -8
-12 -10 2 -15 9 -4 14 -13 11 -21 -3 -9 1 -14 12 -14 12 0 16 -6 12 -20 -7
-27 7 -33 27 -11 15 17 15 19 -4 36 -22 20 -26 41 -8 47 16 6 -91 55 -137 64
l-37 7 7 -49z"/>
<path d="M6619 2403 c-6 -16 -13 -62 -15 -103 -4 -90 -16 -146 -32 -142 -12 2
-16 -10 -13 -35 1 -7 -4 -14 -11 -14 -48 -5 70 -17 177 -19 72 -1 157 -5 190
-9 55 -5 62 -4 87 20 24 23 46 82 60 162 2 14 -27 28 -167 76 -93 32 -187 65
-209 75 -51 21 -55 21 -67 -11z"/>
<path d="M7660 1488 c0 -18 -63 -175 -77 -190 -13 -14 -18 -37 -19 -77 0 -31
-7 -72 -14 -91 -7 -19 -15 -42 -18 -50 -13 -37 12 -108 36 -106 20 1 50 -101
51 -172 1 -24 6 -53 12 -64 7 -12 14 -44 16 -72 5 -55 38 -188 56 -221 6 -11
13 -33 17 -50 4 -16 12 -29 19 -27 7 1 10 -1 7 -6 -7 -12 29 -64 39 -55 4 5 5
3 2 -3 -4 -6 5 -26 18 -44 l24 -33 -6 37 c-4 29 -2 36 11 36 9 0 16 7 16 15 0
8 -6 15 -12 15 -15 0 -18 15 -22 144 -2 80 0 103 13 119 18 21 88 73 135 99
31 17 31 17 6 19 -86 4 -79 -2 -105 109 -10 41 -21 80 -25 85 -13 19 -60 199
-60 230 0 9 -11 40 -24 68 -35 77 -55 144 -63 216 -5 37 -13 66 -20 69 -7 2
-13 2 -13 0z"/>
</g>
</svg>
